<svg width="454" height="504" viewBox="0 0 454 504" fill="none" xmlns="http://www.w3.org/2000/svg">
<path d="M372.514 -3.56185e-06C398.546 -2.42396e-06 421.028 16.4709 425.894 39.7412C436.807 91.9364 454 184.823 454 252C454 319.178 436.807 412.063 425.894 464.26C421.028 487.529 398.546 504 372.514 504L87.4025 504C62.3394 504 40.4362 488.706 34.7229 466.502C21.4713 415.001 1.30325e-05 320.925 1.60452e-05 252C1.90581e-05 183.075 21.4713 88.9993 34.7229 37.4971C40.4362 15.2934 62.3394 -1.712e-05 87.4025 -1.60245e-05L372.514 -3.56185e-06Z" fill="#2A377A"/>
</svg>
