<svg width="454" height="551" viewBox="0 0 454 551" preserveAspectRatio="none" fill="none" xmlns="http://www.w3.org/2000/svg">
<path d="M372.514 -3.56185e-06C398.546 -2.42396e-06 421.028 18.0069 425.894 43.4472C436.807 100.51 454 202.058 454 275.5C454 348.943 436.807 450.489 425.894 507.554C421.028 532.993 398.546 551 372.514 551L87.4025 551C62.3394 551 40.4361 534.28 34.7228 510.006C21.4712 453.702 -1.53362e-05 350.852 -1.20425e-05 275.5C-8.74871e-06 200.147 21.4712 97.2989 34.7229 40.9938C40.4362 16.7196 62.3394 -1.712e-05 87.4025 -1.60245e-05L372.514 -3.56185e-06Z" fill="#2A377A"/>
</svg>
