<svg width="473" height="473" viewBox="0 0 473 473" fill="none" xmlns="http://www.w3.org/2000/svg">
<path d="M118.25 0C52.9424 0 0 52.9424 0 118.25C0 183.559 52.9424 236.5 118.25 236.5C52.9424 236.5 0 289.441 0 354.75C0 420.059 52.9424 473 118.25 473C183.559 473 236.5 420.059 236.5 354.75C236.5 420.059 289.441 473 354.75 473C420.059 473 473 420.059 473 354.75C473 289.441 420.059 236.5 354.75 236.5C420.059 236.5 473 183.559 473 118.25C473 52.9424 420.059 0 354.75 0C289.441 0 236.5 52.9424 236.5 118.25C236.5 52.9424 183.559 0 118.25 0Z" fill="#CDE7D2"/>
</svg>
