<svg width="236" height="236" viewBox="0 0 236 236" fill="none" xmlns="http://www.w3.org/2000/svg">
<path d="M114.851 2.79733C115.294 -0.932442 120.706 -0.932442 121.149 2.79733L124.862 34.0867C129.656 74.4897 161.51 106.344 201.913 111.138L233.202 114.851C236.933 115.294 236.933 120.706 233.202 121.149L201.913 124.862C161.51 129.656 129.656 161.51 124.862 201.913L121.149 233.202C120.706 236.933 115.294 236.933 114.851 233.202L111.138 201.913C106.344 161.51 74.4897 129.656 34.0867 124.862L2.79733 121.149C-0.932442 120.706 -0.932442 115.294 2.79733 114.851L34.0867 111.138C74.4897 106.344 106.344 74.4897 111.138 34.0867L114.851 2.79733Z" fill="#56CCF2"/>
</svg>
