<svg width="588" height="567" viewBox="0 0 588 567" fill="none" xmlns="http://www.w3.org/2000/svg">
<path fill-rule="evenodd" clip-rule="evenodd" d="M293.913 0C352.784 0 400.507 47.6577 400.507 106.446C400.507 165.235 352.784 212.892 293.913 212.892C235.041 212.892 187.318 165.235 187.318 106.446C187.318 47.6577 235.041 0 293.913 0ZM115.834 546.662C68.2069 512.109 57.6488 445.54 92.2521 397.978C126.855 350.417 193.516 339.874 241.143 374.43C288.771 408.984 299.328 475.553 264.726 523.114C230.122 570.675 163.461 581.218 115.834 546.662ZM495.918 397.978C530.522 445.54 519.964 512.109 472.337 546.662C424.709 581.218 358.048 570.675 323.446 523.114C288.842 475.553 299.399 408.984 347.027 374.43C394.655 339.874 461.316 350.417 495.918 397.978ZM5.6223 208.645C23.8143 152.735 83.9499 122.136 139.939 140.303C195.928 158.47 226.569 218.523 208.377 274.433C190.185 330.344 130.049 360.942 74.0601 342.775C18.0709 324.609 -12.5697 264.558 5.6223 208.645ZM447.814 140.303C503.804 122.136 563.939 152.735 582.13 208.645C600.322 264.558 569.682 324.609 513.693 342.775C457.703 360.942 397.568 330.344 379.376 274.433C361.185 218.523 391.825 158.47 447.814 140.303Z" fill="#D0E3FD"/>
</svg>
