<svg width="21" height="21" viewBox="0 0 21 21" fill="none" xmlns="http://www.w3.org/2000/svg">
<path d="M1 10.3906C1 5.9638 1 3.75043 2.39124 2.37521C3.78249 1 6.02166 1 10.5 1C14.9783 1 17.2175 1 18.6088 2.37521C20 3.75043 20 5.9638 20 10.3906C20 14.8173 20 17.0307 18.6088 18.4059C17.2175 19.7811 14.9783 19.7811 10.5 19.7811C6.02166 19.7811 3.78249 19.7811 2.39124 18.4059C1 17.0307 1 14.8173 1 10.3906Z" stroke="#374280" stroke-width="1.5"/>
<path d="M5.75 8.4136L10.1253 11.9993C10.4248 12.2448 10.5746 12.3675 10.75 12.3675C10.9254 12.3675 11.0752 12.2448 11.3747 11.9993L15.75 8.4136" stroke="#374280" stroke-width="1.5" stroke-linecap="round" stroke-linejoin="round"/>
</svg>
