<svg width="72" height="70" viewBox="0 0 72 70" fill="none" xmlns="http://www.w3.org/2000/svg">
<path d="M57.7854 67.9771C55.9298 69.3373 53.7755 69.9937 51.6369 69.9937C48.4184 69.9937 45.242 68.5066 43.1978 65.7119C43.192 65.706 43.1864 65.6998 43.1812 65.6933C43.1762 65.6867 43.1713 65.6802 43.1667 65.6737L43.1596 65.6634C43.1547 65.6565 43.15 65.6497 43.1454 65.6432L35.9118 55.6033L28.6782 65.6432C28.6711 65.6541 28.6637 65.6625 28.6566 65.6718C28.6532 65.6761 28.6501 65.6805 28.6468 65.6855C25.2395 70.3696 18.6927 71.4015 14.0328 67.9824C9.36769 64.5636 8.32463 57.9531 11.6899 53.2323L11.6973 53.2205C11.7035 53.2105 11.7084 53.2031 11.7161 53.1953L18.934 43.1498L7.23965 39.3076C1.74633 37.5029 -1.27281 31.5171 0.514633 25.9703C2.30177 20.4238 8.22508 17.3753 13.7236 19.1748L25.4177 23.0014L25.4229 10.5798C25.4285 4.74737 30.1303 0 35.9066 0C41.6829 0 46.3846 4.74737 46.3899 10.5851L46.4004 22.9961L58.0946 19.1695C58.0993 19.1695 58.1049 19.1685 58.1106 19.1669C58.1179 19.1649 58.1255 19.1619 58.1314 19.1589C63.6194 17.3806 69.5216 20.4291 71.3038 25.9653C73.086 31.5012 70.0877 37.4658 64.6206 39.2865C64.6156 39.288 64.611 39.2899 64.6067 39.2918L64.5874 39.2992L64.5786 39.3023L52.8897 43.1446L60.1075 53.19C60.1101 53.1953 60.114 53.2006 60.1179 53.2059C60.1219 53.2112 60.1258 53.2165 60.1284 53.2218C63.4989 57.9426 62.4505 64.5583 57.7854 67.9771Z" fill="#2D7FF9"/>
</svg>
