<svg width="25" height="24" viewBox="0 0 25 24" fill="none" xmlns="http://www.w3.org/2000/svg">
<path d="M14.0145 2C15.2408 2 15.8539 2 16.4052 2.22836C16.9565 2.45672 17.3901 2.89027 18.2572 3.75736L20.7424 6.24264C21.6095 7.10973 22.0431 7.54328 22.2714 8.09459C22.4998 8.6459 22.4998 9.25903 22.4998 10.4853V13.5147C22.4998 14.741 22.4998 15.3541 22.2714 15.9054C22.0431 16.4567 21.6095 16.8903 20.7425 17.7574L18.2572 20.2426C17.3901 21.1097 16.9565 21.5433 16.4052 21.7716C15.8539 22 15.2408 22 14.0145 22H10.9851C9.75887 22 9.14573 22 8.5944 21.7716C8.04308 21.5433 7.60953 21.1097 6.74244 20.2426L4.25729 17.7573C3.39023 16.8903 2.9567 16.4567 2.72835 15.9054C2.5 15.3541 2.5 14.741 2.5 13.5148V10.4852C2.5 9.259 2.5 8.64589 2.72835 8.09458C2.9567 7.54328 3.39023 7.10974 4.25729 6.24265L6.74244 3.75743C7.60953 2.8903 8.04308 2.45674 8.5944 2.22837C9.14573 2 9.75887 2 10.9851 2H14.0145Z" stroke="#141B34" stroke-width="1.5"/>
</svg>
