<svg width="197" height="58" viewBox="0 0 197 58" fill="none" xmlns="http://www.w3.org/2000/svg">
<g clip-path="url(#clip0_2001_2244)">
<path fill-rule="evenodd" clip-rule="evenodd" d="M29.0409 0H167.959C183.932 0 197 13.05 197 28.9999V29.0001C197 44.9502 183.931 58 167.959 58H29.0409C13.0683 58 0 44.95 0 29.0001V28.9999C0 13.0498 13.0685 0 29.0409 0ZM29.0409 3.04356H167.959C182.255 3.04356 193.952 14.7238 193.952 29.0001V29.0003C193.952 43.2764 182.255 54.9569 167.959 54.9569H29.0409C14.7446 54.9569 3.04764 43.2766 3.04764 29.0003V29.0001C3.04764 14.724 14.7444 3.04356 29.0409 3.04356Z" fill="#374280"/>
<path fill-rule="evenodd" clip-rule="evenodd" d="M39.3202 31.5756V42.9081C39.3202 45.8465 36.9221 48.2415 33.9795 48.2415C31.0367 48.2415 28.6388 45.8467 28.6388 42.9081V20.0044H24.5864C21.6149 20.0044 19.2053 17.5972 19.2053 14.6301C19.2053 11.6638 21.6163 9.25861 24.5864 9.25861H43.3721C46.3423 9.25861 48.7535 11.6635 48.7535 14.6301C48.7535 17.5974 46.3436 20.0044 43.3721 20.0044H39.3202V25.9243C40.797 23.5349 43.9 22.6704 46.4189 24.005L48.9275 25.3342C50.7008 20.9655 52.4741 16.597 54.2475 12.2284L54.2545 12.2112L54.2628 12.1945C54.958 10.7986 56.2773 9.70926 57.8225 9.40822C60.406 8.79892 63.0636 10.1527 64.0631 12.6149L73.5229 35.9199V14.6931C73.5229 11.6301 74.7525 9.63727 78.0575 9.32315L78.0806 9.32112H78.1036C81.3535 9.32112 84.6032 9.32112 87.8531 9.32112L87.8739 9.32157C90.945 9.45268 92.7678 10.108 95.0744 12.0672C97.8588 14.4322 99.0723 17.7897 99.0723 21.3807C99.0723 23.087 98.7984 24.7813 98.1636 26.3652C98.6755 26.836 99.1433 27.3475 99.5616 27.8979V14.6703C99.4947 13.1615 99.8782 11.6728 100.991 10.5979C101.819 9.79817 102.955 9.33624 104.102 9.28569L104.124 9.28523H115.39L115.416 9.28794C119.098 9.68218 121.626 10.964 123.582 13.8225C124.103 11.4236 126.247 9.61854 128.802 9.61854C131.744 9.61854 134.143 12.0135 134.143 14.9515V29.7015L143.215 20.6421V15.2751C143.215 12.3365 145.613 9.9417 148.555 9.9417C151.168 9.9417 153.351 11.8294 153.808 14.3088C154.3 13.6483 154.866 13.046 155.5 12.5073C157.657 10.6749 158.783 10.0448 161.727 9.76252L161.75 9.76026H161.773C165.134 9.76026 168.496 9.76026 171.857 9.76026L171.88 9.76071C173.979 9.86001 175.375 10.3301 176.749 11.9524L176.761 11.9661L176.772 11.9808C177.44 12.9002 177.796 13.9985 177.796 15.1345V43.3696C177.796 46.3364 175.385 48.7409 172.414 48.7409C169.444 48.7409 167.035 46.3355 167.035 43.3696V41.7152L161.56 47.182C159.479 49.2595 156.088 49.2595 154.007 47.1818C153.655 46.83 153.356 46.4335 153.116 46.0029C152.161 47.5656 150.444 48.5644 148.555 48.5644C145.613 48.5644 143.215 46.1699 143.215 43.2315V35.7392L133.454 45.6351L133.442 45.6457C132.601 46.394 131.378 47.6065 130.31 47.989C129.831 48.1605 129.332 48.214 128.827 48.2404L128.802 48.2411C125.859 48.2411 123.461 45.8463 123.461 42.9077V28.9744C122.991 29.5893 122.454 30.1523 121.858 30.659C119.827 32.3842 117.098 33.4055 114.429 33.4055C112.816 33.4055 111.326 32.6861 110.323 31.5052V42.8941C110.323 45.8601 107.913 48.2654 104.943 48.2654C102.093 48.2654 99.7578 46.0512 99.5738 43.2505C99.1489 43.832 98.669 44.3727 98.137 44.8671C95.2719 47.5298 93.2381 48.04 89.3769 48.2991L89.3525 48.3002C86.4974 48.3471 83.6346 48.3413 80.779 48.3363C78.6231 48.3325 76.4668 48.3232 74.3109 48.3031C73.0951 48.2918 71.8266 48.3047 70.614 48.2381C69.7094 48.2503 68.8147 48.0359 68.0154 47.6124L54.4217 40.4086L52.6048 44.884C51.7815 46.9119 49.8096 48.2408 47.618 48.2408C46.9251 48.2408 46.2385 48.1048 45.5965 47.8448C42.8662 46.7388 41.5254 43.5752 42.632 40.848L44.8652 35.3445L41.3762 33.4956C40.5012 33.0318 39.8068 32.3607 39.3214 31.5749L39.3202 31.5756ZM123.946 15.3536V14.9515C123.946 12.281 126.127 10.1035 128.801 10.1035C131.475 10.1035 133.656 12.2812 133.656 14.9515V30.8724L143.7 20.8429V15.2751C143.7 12.6043 145.88 10.4269 148.555 10.4269C151.229 10.4269 153.41 12.6048 153.41 15.2751V15.8291C154.006 14.7346 154.801 13.7376 155.814 12.8769C157.581 11.3765 158.611 10.549 161.773 10.2454C165.134 10.2454 168.495 10.2454 171.857 10.2454C174.255 10.3587 175.333 11.0323 176.378 12.2658C176.964 13.0719 177.31 14.063 177.31 15.1347V43.3698C177.31 46.0688 175.116 48.2562 172.414 48.2562C169.712 48.2562 167.52 46.0681 167.52 43.3698V40.5445L161.216 46.8394C159.325 48.7276 156.241 48.7276 154.35 46.8392C153.768 46.2572 153.364 45.5622 153.141 44.8238C152.479 46.716 150.671 48.0799 148.555 48.0799C145.881 48.0799 143.7 45.9027 143.7 43.2319V34.556L133.119 45.2839C130.84 47.31 130.486 47.6688 128.802 47.7565C126.127 47.7565 123.947 45.5791 123.947 42.9083V27.3387C123.35 28.4328 122.555 29.43 121.543 30.2902C119.6 31.9401 116.982 32.9213 114.428 32.9213C112.323 32.9213 110.527 31.5921 109.837 29.7285V42.8948C109.837 45.5929 107.645 47.7812 104.943 47.7812C102.24 47.7812 100.047 45.594 100.047 42.8948V41.571C99.4834 42.6491 98.7422 43.6422 97.8055 44.5126C95.1626 46.9688 93.3495 47.5469 89.3437 47.8157C84.6739 47.8929 72.2034 47.8412 70.623 47.7534C69.7914 47.7674 68.9774 47.574 68.2423 47.1845L54.1729 39.7287L52.1537 44.7024C51.4037 46.5499 49.6082 47.7563 47.617 47.7563C46.9863 47.7563 46.3624 47.6322 45.7782 47.3957C43.2849 46.3856 42.0707 43.5208 43.0813 41.0306L45.4792 35.1215L41.6031 33.0675C39.2163 31.8026 38.3064 28.8426 39.5731 26.4591C40.8402 24.0747 43.8042 23.1682 46.1915 24.4335L49.1757 26.0148C51.0163 21.48 52.8572 16.9455 54.6978 12.4105C55.3118 11.1777 56.494 10.1579 57.9249 9.88257C60.2738 9.32405 62.6937 10.5323 63.613 12.7973L74.0085 38.4077V14.6931C74.0085 12.4843 74.5993 10.1389 78.1034 9.80607C80.4717 9.80607 85.4845 9.80607 87.8528 9.80607C91.1947 9.94892 92.8209 10.7902 94.7594 12.4367C97.433 14.708 98.5862 17.9314 98.5862 21.3807C98.5862 23.156 98.2818 24.8937 97.5817 26.4966C98.607 27.3864 99.4283 28.4075 100.047 29.534V14.6595C99.8881 11.1953 102.264 9.85211 104.123 9.77019H115.364C119.094 10.1694 121.831 11.4726 123.946 15.3534V15.3536ZM161.108 33.2345C159.169 32.8926 157.295 32.0233 155.814 30.7653C154.801 29.9048 154.006 28.9078 153.409 27.8135V41.3059C153.64 40.8273 153.953 40.3791 154.35 39.9833L161.108 33.2347L161.108 33.2345ZM29.1247 19.5194H24.5866C21.8832 19.5194 19.6911 17.3296 19.6911 14.6301C19.6911 11.9314 21.8843 9.74379 24.5866 9.74379H43.3724C46.0747 9.74379 48.2681 11.9314 48.2681 14.6301C48.2681 17.3298 46.0758 19.5194 43.3724 19.5194H38.8348V42.9081C38.8348 45.5786 36.6543 47.7563 33.9797 47.7563C31.3052 47.7563 29.1247 45.5789 29.1247 42.9081V19.5194ZM160.136 33.5193C158.442 33.0817 156.826 32.2614 155.499 31.1344C154.903 30.6278 154.366 30.0646 153.895 29.4496V39.754C153.932 39.7154 153.969 39.6775 154.006 39.64L160.136 33.5191L160.136 33.5193Z" fill="#374280"/>
<path d="M56.2325 15.7847C56.0967 15.4491 56.0282 15.1041 56.0144 14.762L50.3558 28.7025L55.3112 31.3297L58.926 22.4211L56.2323 15.7849L56.2325 15.7847Z" fill="#CD2927"/>
<path d="M45.0318 41.8202C44.4528 43.2467 45.1411 44.8706 46.5691 45.4483C46.9122 45.5882 47.2677 45.6547 47.6166 45.6547C48.7189 45.6547 49.7632 44.9972 50.2025 43.9131L52.9932 37.039L48.0378 34.4123L45.0318 41.8202ZM48.5009 43.2609C48.5009 43.8 48.0636 44.2369 47.5239 44.2369C46.9843 44.2369 46.5477 43.8 46.5477 43.2609C46.5477 42.7224 46.9843 42.2862 47.5239 42.2862C48.0636 42.2862 48.5009 42.7227 48.5009 43.2609Z" fill="#CD2927"/>
<path d="M61.6623 13.5869C61.0842 12.1605 59.4584 11.4715 58.0289 12.0515C56.6004 12.6294 55.9121 14.2538 56.4915 15.6809L64.9072 36.4144L71.9755 40.1589C72.2264 40.2918 72.4485 40.4572 72.6451 40.6436L61.6627 13.5871L61.6623 13.5869ZM59.1027 15.33C58.5633 15.33 58.126 14.8935 58.126 14.3546C58.126 13.8155 58.5635 13.3786 59.1027 13.3786C59.6424 13.3786 60.0795 13.8155 60.0795 14.3546C60.0795 14.8935 59.6424 15.33 59.1027 15.33Z" fill="#CD2927"/>
<path d="M71.844 40.4062L45.2046 26.2901C43.8447 25.5684 42.1552 26.0841 41.432 27.4444C40.7105 28.8024 41.228 30.4891 42.5895 31.211L69.2287 45.3277C69.6456 45.548 70.0929 45.6523 70.5349 45.6523C71.534 45.6523 72.4998 45.1161 73.0013 44.1728C73.7233 42.8136 73.2058 41.127 71.8442 40.4062H71.844ZM43.8503 29.7247C43.3107 29.7247 42.874 29.2879 42.874 28.7487C42.874 28.2103 43.3107 27.7741 43.8503 27.7741C44.3897 27.7741 44.8263 28.2105 44.8263 28.7487C44.8263 29.2879 44.3897 29.7247 43.8503 29.7247ZM70.7521 44.2366C70.2126 44.2366 69.7754 43.7998 69.7754 43.2606C69.7754 42.7222 70.2129 42.286 70.7521 42.286C71.2917 42.286 71.7288 42.7224 71.7288 43.2606C71.7288 43.7998 71.2917 44.2366 70.7521 44.2366Z" fill="#CD2927"/>
<path d="M111.34 14.6597C111.34 13.4237 112.084 12.3559 113.15 11.8723H106.213C107.271 12.3559 108.011 13.4235 108.011 14.6597V17.4453H113.125C112.076 16.9622 111.34 15.8961 111.34 14.6597Z" fill="#55933D"/>
<path d="M104.943 11.8723C103.401 11.8723 102.152 13.1206 102.152 14.6597V42.8948C102.152 44.4329 103.401 45.6793 104.943 45.6793C106.482 45.6793 107.732 44.4332 107.732 42.8948V14.6597C107.732 13.1209 106.483 11.8723 104.943 11.8723ZM104.943 43.8694C104.403 43.8694 103.966 43.4307 103.966 42.8948C103.966 42.3557 104.404 41.9188 104.943 41.9188C105.482 41.9188 105.919 42.3557 105.919 42.8948C105.919 43.431 105.482 43.8694 104.943 43.8694ZM104.943 15.635C104.403 15.635 103.966 15.199 103.966 14.6597C103.966 14.1217 104.404 13.685 104.943 13.685C105.482 13.685 105.919 14.1219 105.919 14.6597C105.919 15.1992 105.482 15.635 104.943 15.635Z" fill="#55933D"/>
<path d="M114.428 11.8723C112.888 11.8723 111.619 13.1206 111.619 14.6597C111.619 16.1992 112.85 17.4453 114.392 17.4453C115.62 17.4819 117.684 18.035 117.684 21.3466C117.684 24.6528 115.629 25.2102 114.398 25.2479C112.871 25.2651 111.638 26.5049 111.638 28.0324C111.638 29.5724 112.888 30.8194 114.428 30.8194C117.98 30.8194 123.265 28.2967 123.265 21.3468C123.265 14.3959 117.98 11.8725 114.428 11.8725V11.8723ZM114.016 15.635C113.476 15.635 113.039 15.199 113.039 14.6597C113.039 14.1217 113.476 13.685 114.016 13.685C114.556 13.685 114.993 14.1219 114.993 14.6597C114.993 15.1992 114.556 15.635 114.016 15.635ZM114.016 29.0082C113.476 29.0082 113.039 28.5713 113.039 28.0322C113.039 27.4944 113.476 27.0575 114.016 27.0575C114.556 27.0575 114.993 27.4947 114.993 28.0322C114.993 28.5713 114.556 29.0082 114.016 29.0082Z" fill="#55933D"/>
<path d="M80.175 45.7138H87.1204C85.9878 45.1975 85.235 44.02 85.3288 42.7079C85.4122 41.5638 86.1302 40.5964 87.1125 40.1417H81.972V42.9268C81.972 44.1639 81.2346 45.2313 80.1752 45.7138H80.175Z" fill="#374280"/>
<path d="M81.9718 14.6933V17.4803H86.3412C85.292 16.9947 84.5587 15.9306 84.5587 14.6933C84.5587 13.4562 85.3024 12.3906 86.3677 11.9081H80.175C81.2344 12.3906 81.9718 13.456 81.9718 14.6933Z" fill="#374280"/>
<path d="M78.904 11.9081C77.3619 11.9081 76.1133 13.1549 76.1133 14.6933V42.9271C76.1133 44.4666 77.3619 45.714 78.904 45.714C80.4457 45.714 81.6943 44.4668 81.6943 42.9271V14.6933C81.6943 13.1549 80.4457 11.9081 78.904 11.9081ZM78.6778 43.9024C78.1386 43.9024 77.7011 43.4655 77.7011 42.9271C77.7011 42.3886 78.1386 41.9511 78.6778 41.9511C79.2177 41.9511 79.6552 42.3886 79.6552 42.9271C79.6552 43.4657 79.2177 43.9024 78.6778 43.9024ZM78.6778 15.668C78.1386 15.668 77.7011 15.2315 77.7011 14.6933C77.7011 14.1549 78.1386 13.718 78.6778 13.718C79.2177 13.718 79.6552 14.1551 79.6552 14.6933C79.6552 15.2318 79.2177 15.668 78.6778 15.668Z" fill="#374280"/>
<path d="M88.3914 25.2809C86.8497 25.2809 85.5993 26.5281 85.5993 28.0679C85.5993 29.6055 86.8495 30.853 88.3914 30.853C88.9437 30.853 93.7861 30.9814 93.7861 35.3767C93.7861 36.972 93.3938 38.1168 92.589 38.8775C91.3644 40.0324 89.2781 40.1841 88.5726 40.1471C87.0488 40.0415 85.7184 41.1994 85.6088 42.7269C85.4981 44.2623 86.6547 45.5965 88.1911 45.7059C88.2775 45.712 88.4813 45.7246 88.7762 45.7246C90.1927 45.7246 93.7061 45.4514 96.3716 42.9738C97.7379 41.7046 99.3657 39.3559 99.3657 35.3765C99.3657 27.9697 92.8021 25.2809 88.3916 25.2809H88.3914ZM88.0246 29.0414C87.4847 29.0414 87.0479 28.6061 87.0479 28.0679C87.0479 27.5292 87.4849 27.0925 88.0246 27.0925C88.5645 27.0925 89.0006 27.5294 89.0006 28.0679C89.0006 28.6063 88.5642 29.0414 88.0246 29.0414ZM88.0246 43.9024C87.4847 43.9024 87.0479 43.4655 87.0479 42.9271C87.0479 42.3886 87.4849 41.9511 88.0246 41.9511C88.5645 41.9511 89.0006 42.3886 89.0006 42.9271C89.0006 43.4657 88.5642 43.9024 88.0246 43.9024Z" fill="#374280"/>
<path d="M87.6461 11.9081C86.1055 11.9081 84.8375 13.1549 84.8375 14.6933C84.8375 16.2333 86.0678 17.4803 87.6083 17.4803C88.8386 17.5162 90.9012 18.0688 90.9012 21.3809C90.9012 23.7098 90.2499 24.6702 89.4361 25.0518C91.2336 25.2091 93.2469 25.7769 95.0085 26.8639C95.9024 25.4664 96.4814 23.6687 96.4814 21.3809C96.4814 14.43 91.1977 11.9084 87.6458 11.9084L87.6461 11.9081ZM88.0248 15.668C87.4849 15.668 87.0481 15.2315 87.0481 14.6933C87.0481 14.1549 87.4852 13.718 88.0248 13.718C88.5647 13.718 89.0009 14.1551 89.0009 14.6933C89.0009 15.2318 88.5645 15.668 88.0248 15.668Z" fill="#374280"/>
<path d="M43.3721 11.8456H34.1081C35.7397 11.9136 37.0536 13.2669 37.0536 14.9124V17.4176H43.3721C44.9133 17.4176 46.163 16.1703 46.163 14.6301C46.163 13.092 44.9133 11.8456 43.3721 11.8456ZM33.8509 11.8456H24.5864C23.0452 11.8456 21.7957 13.092 21.7957 14.6301C21.7957 16.1701 23.0452 17.4176 24.5864 17.4176H30.9054V14.9124C30.9054 13.2671 32.2191 11.9136 33.8509 11.8456ZM24.5864 15.6061C24.0468 15.6061 23.6097 15.1693 23.6097 14.6301C23.6097 14.0917 24.0468 13.6555 24.5864 13.6555C25.1254 13.6555 25.562 14.0919 25.562 14.6301C25.562 15.1693 25.1254 15.6061 24.5864 15.6061ZM43.3721 15.6061C42.8327 15.6061 42.3954 15.1693 42.3954 14.6301C42.3954 14.0917 42.8327 13.6555 43.3721 13.6555C43.9118 13.6555 44.3491 14.0919 44.3491 14.6301C44.3491 15.1693 43.9118 15.6061 43.3721 15.6061Z" fill="#55933D"/>
<path d="M33.9795 12.2056C35.4922 12.2056 36.7297 13.4415 36.7297 14.9517V42.9083C36.7297 44.4187 35.4922 45.6547 33.9795 45.6547C32.4667 45.6547 31.2292 44.4192 31.2292 42.9083V14.9517C31.2292 13.4411 32.4667 12.2056 33.9795 12.2056Z" fill="#55933D"/>
<path fill-rule="evenodd" clip-rule="evenodd" d="M33.9795 13.6584C34.5103 13.6584 34.9408 14.0881 34.9408 14.6184C34.9408 15.1485 34.5105 15.5784 33.9795 15.5784C33.4486 15.5784 33.0181 15.1487 33.0181 14.6184C33.0181 14.0883 33.4484 13.6584 33.9795 13.6584Z" fill="#FEFEFE"/>
<path fill-rule="evenodd" clip-rule="evenodd" d="M33.9795 41.3336C34.5103 41.3336 34.9408 41.7633 34.9408 42.2936C34.9408 42.8237 34.5105 43.2536 33.9795 43.2536C33.4486 43.2536 33.0181 42.8239 33.0181 42.2936C33.0181 41.7635 33.4484 41.3336 33.9795 41.3336Z" fill="#FEFEFE"/>
<path d="M166.016 15.1347C166.016 13.8987 165.272 12.8309 164.206 12.3473H171.142C170.085 12.8309 169.344 13.8985 169.344 15.1347V17.9203H164.231C165.28 17.4372 166.016 16.3711 166.016 15.1347Z" fill="#F2B03F"/>
<path d="M162.928 12.3476C164.468 12.3476 165.737 13.596 165.737 15.135C165.737 16.6745 164.506 17.9206 162.964 17.9206C161.736 17.9572 159.672 18.5103 159.672 21.822C159.672 25.1282 161.727 25.6856 162.958 25.7233C164.485 25.7404 165.717 26.9802 165.717 28.5078C165.717 30.0477 164.468 31.2947 162.928 31.2947C159.376 31.2947 154.091 28.772 154.091 21.8222C154.091 14.8712 159.376 12.3478 162.928 12.3478V12.3476ZM163.34 16.1104C163.88 16.1104 164.317 15.6744 164.317 15.135C164.317 14.597 163.88 14.1604 163.34 14.1604C162.8 14.1604 162.363 14.5973 162.363 15.135C162.363 15.6746 162.8 16.1104 163.34 16.1104ZM163.34 29.4835C163.88 29.4835 164.317 29.0467 164.317 28.5075C164.317 27.9698 163.88 27.5329 163.34 27.5329C162.8 27.5329 162.363 27.97 162.363 28.5075C162.363 29.0467 162.8 29.4835 163.34 29.4835Z" fill="#F2B03F"/>
<path d="M155.838 45.3532C156.908 46.4215 158.658 46.4211 159.727 45.3534L168.491 36.6021V28.8345L155.838 41.4697C154.768 42.538 154.768 44.2854 155.838 45.3534V45.3532Z" fill="#F2B03F"/>
<path fill-rule="evenodd" clip-rule="evenodd" d="M157.941 44.04C158.472 44.04 158.902 43.6104 158.902 43.08C158.902 42.55 158.472 42.1201 157.941 42.1201C157.41 42.1201 156.979 42.5497 156.979 43.08C156.979 43.6101 157.41 44.04 157.941 44.04Z" fill="#FEFEFE"/>
<path d="M172.413 12.3475C173.955 12.3475 175.204 13.5959 175.204 15.135V43.3701C175.204 44.9082 173.955 46.1546 172.413 46.1546C170.874 46.1546 169.624 44.9084 169.624 43.3701V15.135C169.624 13.5961 170.873 12.3475 172.413 12.3475ZM172.413 44.3447C172.953 44.3447 173.39 43.906 173.39 43.3701C173.39 42.8309 172.952 42.3941 172.413 42.3941C171.874 42.3941 171.437 42.8309 171.437 43.3701C171.437 43.9062 171.874 44.3447 172.413 44.3447ZM172.413 16.1103C172.953 16.1103 173.39 15.6743 173.39 15.135C173.39 14.597 172.952 14.1603 172.413 14.1603C171.874 14.1603 171.437 14.5972 171.437 15.135C171.437 15.6745 171.874 16.1103 172.413 16.1103Z" fill="#F2B03F"/>
<path d="M132.685 42.5829L144.671 30.6134V22.8455L132.685 34.8153V42.5829Z" fill="#CD2927"/>
<path d="M148.554 45.9781C150.067 45.9781 151.305 44.7421 151.305 43.2319V25.9504C150.799 26.9576 149.754 27.6529 148.554 27.6529C147.355 27.6529 146.31 26.9578 145.804 25.9507V43.2317C145.804 44.7423 147.042 45.9778 148.554 45.9778V45.9781Z" fill="#CD2927"/>
<path fill-rule="evenodd" clip-rule="evenodd" d="M148.555 44.2018C149.085 44.2018 149.516 43.7722 149.516 43.2418C149.516 42.7118 149.086 42.2819 148.555 42.2819C148.024 42.2819 147.593 42.7115 147.593 43.2418C147.593 43.7719 148.023 44.2018 148.555 44.2018Z" fill="#FEFEFE"/>
<path fill-rule="evenodd" clip-rule="evenodd" d="M148.555 16.8498C149.085 16.8498 149.516 16.4201 149.516 15.8898C149.516 15.3597 149.086 14.9298 148.555 14.9298C148.024 14.9298 147.593 15.3595 147.593 15.8898C147.593 16.4199 148.023 16.8498 148.555 16.8498Z" fill="#FEFEFE"/>
<path d="M148.554 27.3295C150.067 27.3295 151.305 26.0933 151.305 24.5834V15.2751C151.305 13.7649 150.067 12.5287 148.554 12.5287C147.042 12.5287 145.804 13.7643 145.804 15.2751V24.5834C145.804 26.094 147.042 27.3295 148.554 27.3295Z" fill="#CD2927"/>
<path fill-rule="evenodd" clip-rule="evenodd" d="M148.555 26.0757C149.085 26.0757 149.516 25.646 149.516 25.1157C149.516 24.5856 149.086 24.1557 148.555 24.1557C148.024 24.1557 147.593 24.5854 147.593 25.1157C147.593 25.6458 148.023 26.0757 148.555 26.0757Z" fill="#FEFEFE"/>
<path fill-rule="evenodd" clip-rule="evenodd" d="M148.555 16.0238C149.085 16.0238 149.516 15.5942 149.516 15.0639C149.516 14.5338 149.086 14.1039 148.555 14.1039C148.024 14.1039 147.593 14.5336 147.593 15.0639C147.593 15.594 148.023 16.0238 148.555 16.0238Z" fill="#FEFEFE"/>
<path d="M128.801 12.2056C130.314 12.2056 131.551 13.4415 131.551 14.9517V32.2332C131.046 31.2261 130.001 30.5308 128.801 30.5308C127.601 30.5308 126.557 31.2258 126.051 32.233V14.9519C126.051 13.4413 127.288 12.2058 128.801 12.2058V12.2056ZM128.801 13.9818C129.332 13.9818 129.762 14.4115 129.762 14.9418C129.762 15.4719 129.332 15.9017 128.801 15.9017C128.27 15.9017 127.84 15.4721 127.84 14.9418C127.84 14.4117 128.27 13.9818 128.801 13.9818Z" fill="#CD2927"/>
<path fill-rule="evenodd" clip-rule="evenodd" d="M128.801 13.9816C129.332 13.9816 129.762 14.4112 129.762 14.9416C129.762 15.4716 129.332 15.9015 128.801 15.9015C128.27 15.9015 127.84 15.4719 127.84 14.9416C127.84 14.4115 128.27 13.9816 128.801 13.9816Z" fill="#FEFEFE"/>
<path d="M128.801 30.8539C130.314 30.8539 131.551 32.0901 131.551 33.6001V42.9083C131.551 44.4185 130.314 45.6547 128.801 45.6547C127.288 45.6547 126.051 44.4192 126.051 42.9083V33.6001C126.051 32.0895 127.288 30.8539 128.801 30.8539Z" fill="#CD2927"/>
<path fill-rule="evenodd" clip-rule="evenodd" d="M128.801 32.1077C129.332 32.1077 129.762 32.5374 129.762 33.0677C129.762 33.5978 129.332 34.0277 128.801 34.0277C128.27 34.0277 127.84 33.598 127.84 33.0677C127.84 32.5376 128.27 32.1077 128.801 32.1077ZM128.801 42.2821C129.332 42.2821 129.762 42.7118 129.762 43.2421C129.762 43.7722 129.332 44.2021 128.801 44.2021C128.27 44.2021 127.84 43.7724 127.84 43.2421C127.84 42.712 128.27 42.2821 128.801 42.2821Z" fill="#FEFEFE"/>
</g>
<defs>
<clipPath id="clip0_2001_2244">
<rect width="197" height="58" fill="white"/>
</clipPath>
</defs>
</svg>
