<svg width="234" height="69" viewBox="0 0 234 69" fill="none" xmlns="http://www.w3.org/2000/svg">
<rect x="1" width="233" height="69" rx="34.5" fill="white"/>
<g clip-path="url(#clip0_2014_2659)">
<path fill-rule="evenodd" clip-rule="evenodd" d="M34.4953 0H199.504C218.477 0 234 15.525 234 34.4999V34.5001C234 53.4752 218.477 69 199.504 69H34.4953C15.5227 69 0 53.4749 0 34.5001V34.4999C0 15.5248 15.523 0 34.4953 0ZM34.4953 3.62078H199.504C216.486 3.62078 230.38 17.5162 230.38 34.5001V34.5004C230.38 51.484 216.486 65.3797 199.504 65.3797H34.4953C17.5139 65.3797 3.62004 51.4843 3.62004 34.5004V34.5001C3.62004 17.5165 17.5137 3.62078 34.4953 3.62078Z" fill="#374280"/>
<path fill-rule="evenodd" clip-rule="evenodd" d="M46.7052 37.5642V51.046C46.7052 54.5416 43.8566 57.3909 40.3614 57.3909C36.8659 57.3909 34.0176 54.5419 34.0176 51.046V23.7984H29.2042C25.6746 23.7984 22.8123 20.9347 22.8123 17.4049C22.8123 13.8759 25.6762 11.0146 29.2042 11.0146H51.5181C55.0461 11.0146 57.9103 13.8757 57.9103 17.4049C57.9103 20.935 55.0477 23.7984 51.5181 23.7984H46.7052V30.841C48.4594 27.9985 52.1452 26.97 55.1371 28.5577L58.117 30.139C60.2233 24.9418 62.3297 19.7449 64.436 14.5476L64.4444 14.5272L64.4543 14.5074C65.28 12.8467 66.8471 11.5508 68.6826 11.1926C71.7513 10.4678 74.908 12.0783 76.0953 15.0075L87.3317 42.7324V17.4798C87.3317 13.8359 88.7923 11.4651 92.718 11.0914L92.7454 11.089H92.7728C96.6331 11.089 100.493 11.089 104.353 11.089L104.378 11.0896C108.026 11.2455 110.191 12.0251 112.931 14.356C116.238 17.1695 117.68 21.1637 117.68 25.4358C117.68 27.4656 117.354 29.4813 116.6 31.3656C117.208 31.9256 117.764 32.5342 118.261 33.189V17.4527C118.182 15.6577 118.637 13.8867 119.959 12.608C120.942 11.6565 122.292 11.107 123.654 11.0469L123.68 11.0463H137.062L137.093 11.0495C141.467 11.5186 144.469 13.0434 146.793 16.4441C147.411 13.5903 149.958 11.4429 152.993 11.4429C156.488 11.4429 159.337 14.2921 159.337 17.7872V35.3346L170.113 24.5571V18.1722C170.113 14.6762 172.961 11.8273 176.457 11.8273C179.559 11.8273 182.153 14.073 182.696 17.0226C183.28 16.2368 183.952 15.5203 184.705 14.8795C187.267 12.6995 188.606 11.95 192.102 11.6141L192.129 11.6114H192.157C196.15 11.6114 200.142 11.6114 204.135 11.6114L204.162 11.612C206.655 11.7301 208.313 12.2893 209.946 14.2193L209.96 14.2357L209.972 14.2531C210.766 15.3469 211.189 16.6535 211.189 18.0049V51.595C211.189 55.1245 208.325 57.985 204.797 57.985C201.269 57.985 198.407 55.1234 198.407 51.595V49.6269L191.903 56.1304C189.432 58.6019 185.403 58.6019 182.933 56.1301C182.514 55.7116 182.158 55.2399 181.874 54.7277C180.74 56.5868 178.699 57.775 176.457 57.775C172.962 57.775 170.113 54.9263 170.113 51.4307V42.5174L158.519 54.2901L158.505 54.3027C157.505 55.1929 156.053 56.6354 154.784 57.0904C154.215 57.2945 153.623 57.3581 153.023 57.3895L152.993 57.3903C149.498 57.3903 146.65 54.5414 146.65 51.0454V34.4696C146.09 35.2012 145.453 35.871 144.745 36.4737C142.333 38.5261 139.091 39.7412 135.921 39.7412C134.004 39.7412 132.235 38.8853 131.044 37.4804V51.0293C131.044 54.5578 128.181 57.4193 124.654 57.4193C121.268 57.4193 118.494 54.7851 118.275 51.4532C117.771 52.1451 117.201 52.7883 116.569 53.3765C113.166 56.5441 110.75 57.1511 106.163 57.4593L106.134 57.4607C102.743 57.5165 99.3426 57.5095 95.9507 57.5036C93.3899 57.499 90.8286 57.488 88.2677 57.4641C86.8236 57.4507 85.3169 57.466 83.8765 57.3868C82.802 57.4013 81.7393 57.1463 80.7898 56.6424L64.643 48.0724L62.4848 53.3966C61.5069 55.8091 59.1646 57.3901 56.5614 57.3901C55.7384 57.3901 54.9229 57.2282 54.1603 56.9189C50.9171 55.6031 49.3245 51.8395 50.639 48.5951L53.2917 42.0478L49.1474 39.8483C48.108 39.2966 47.2831 38.4982 46.7066 37.5634L46.7052 37.5642ZM147.225 18.2656V17.7872C147.225 14.6102 149.815 12.0198 152.992 12.0198C156.169 12.0198 158.759 14.6105 158.759 17.7872V36.7277L170.689 24.796V18.1722C170.689 14.9949 173.279 12.4045 176.456 12.4045C179.633 12.4045 182.223 14.9954 182.223 18.1722V18.8313C182.932 17.5292 183.876 16.3431 185.079 15.3192C187.177 13.5342 188.4 12.5497 192.157 12.1886C196.149 12.1886 200.142 12.1886 204.134 12.1886C206.983 12.3234 208.263 13.1248 209.505 14.5922C210.201 15.5512 210.611 16.7303 210.611 18.0052V51.5952C210.611 54.8061 208.006 57.4083 204.796 57.4083C201.587 57.4083 198.983 54.8053 198.983 51.5952V48.2341L191.495 55.7229C189.249 57.9691 185.586 57.9691 183.34 55.7226C182.648 55.0303 182.169 54.2034 181.903 53.325C181.117 55.576 178.97 57.1986 176.456 57.1986C173.28 57.1986 170.69 54.6085 170.69 51.4312V41.1098L158.121 53.8724C155.414 56.2826 154.994 56.7095 152.993 56.8139C149.816 56.8139 147.226 54.2235 147.226 51.0462V32.5238C146.517 33.8253 145.573 35.0116 144.37 36.035C142.063 37.9978 138.954 39.1651 135.92 39.1651C133.419 39.1651 131.286 37.5838 130.466 35.3668V51.0301C130.466 54.2399 127.862 56.8432 124.653 56.8432C121.443 56.8432 118.838 54.2412 118.838 51.0301V49.4553C118.168 50.7378 117.288 51.9193 116.175 52.9547C113.036 55.8767 110.882 56.5645 106.124 56.8843C100.577 56.9761 85.7644 56.9146 83.8872 56.8102C82.8994 56.8268 81.9325 56.5967 81.0593 56.1334L64.3475 47.2636L61.949 53.1805C61.0581 55.3784 58.9255 56.8137 56.5603 56.8137C55.8111 56.8137 55.07 56.666 54.3761 56.3847C51.4145 55.183 49.9723 51.7748 51.1727 48.8123L54.021 41.7826L49.4169 39.339C46.5817 37.8343 45.501 34.3128 47.0056 31.4773C48.5107 28.6407 52.0314 27.5623 54.8671 29.0676L58.4117 30.9487C60.598 25.5539 62.7847 20.1594 64.971 14.7643C65.7003 13.2977 67.1045 12.0845 68.8042 11.757C71.5942 11.0925 74.4686 12.5299 75.5606 15.2244L87.9086 45.692V17.4798C87.9086 14.8521 88.6103 12.0619 92.7725 11.6659C95.5857 11.6659 101.54 11.6659 104.353 11.6659C108.323 11.8359 110.254 12.8367 112.557 14.7954C115.733 17.4975 117.102 21.3323 117.102 25.4358C117.102 27.5478 116.741 29.615 115.909 31.5219C117.127 32.5804 118.103 33.7952 118.837 35.1354V17.4398C118.649 13.3186 121.471 11.7207 123.679 11.6233H137.031C141.462 12.0982 144.713 13.6486 147.225 18.2653V18.2656ZM191.367 39.5377C189.064 39.131 186.838 38.0968 185.078 36.6001C183.875 35.5765 182.931 34.3904 182.222 33.0886V49.1399C182.496 48.5704 182.868 48.0373 183.339 47.5664L191.366 39.538L191.367 39.5377ZM34.5948 23.2215H29.2044C25.9932 23.2215 23.3894 20.6163 23.3894 17.4049C23.3894 14.1943 25.9945 11.5918 29.2044 11.5918H51.5184C54.7283 11.5918 57.3337 14.1943 57.3337 17.4049C57.3337 20.6166 54.7296 23.2215 51.5184 23.2215H46.1286V51.046C46.1286 54.223 43.5386 56.8137 40.3617 56.8137C37.1848 56.8137 34.5948 54.2232 34.5948 51.046V23.2215ZM190.212 39.8765C188.2 39.3559 186.28 38.3801 184.704 37.0394C183.996 36.4366 183.359 35.7666 182.8 35.035V47.2936C182.843 47.2477 182.887 47.2026 182.932 47.1581L190.212 39.8762L190.212 39.8765Z" fill="#374280"/>
<path d="M66.7939 18.7782C66.6326 18.379 66.5513 17.9685 66.5349 17.5615L59.8134 34.1459L65.6995 37.2714L69.9933 26.6732L66.7937 18.7785L66.7939 18.7782Z" fill="#CD2927"/>
<path d="M53.4895 49.7514C52.8018 51.4483 53.6194 53.3802 55.3156 54.0675C55.7231 54.2339 56.1453 54.3131 56.5598 54.3131C57.8692 54.3131 59.1096 53.5308 59.6314 52.2411L62.9462 44.0634L57.0601 40.9385L53.4895 49.7514ZM57.6101 51.4652C57.6101 52.1066 57.0907 52.6264 56.4497 52.6264C55.8087 52.6264 55.2901 52.1066 55.2901 51.4652C55.2901 50.8247 55.8087 50.3057 56.4497 50.3057C57.0907 50.3057 57.6101 50.825 57.6101 51.4652Z" fill="#CD2927"/>
<path d="M73.2435 16.1636C72.5568 14.4666 70.6257 13.647 68.9277 14.3369C67.2309 15.0245 66.4133 16.9569 67.1015 18.6547L77.0978 43.3204L85.4938 47.775C85.7917 47.9331 86.0556 48.1299 86.2891 48.3517L73.244 16.1638L73.2435 16.1636ZM70.2032 18.2372C69.5625 18.2372 69.0431 17.718 69.0431 17.0769C69.0431 16.4355 69.5628 15.9158 70.2032 15.9158C70.8442 15.9158 71.3634 16.4355 71.3634 17.0769C71.3634 17.718 70.8442 18.2372 70.2032 18.2372Z" fill="#CD2927"/>
<path d="M85.3375 48.0695L53.6948 31.2762C52.0794 30.4177 50.0726 31.0311 49.2137 32.6494C48.3566 34.265 48.9713 36.2715 50.5886 37.1304L82.231 53.9244C82.7263 54.1865 83.2575 54.3105 83.7825 54.3105C84.9692 54.3105 86.1165 53.6726 86.7122 52.5504C87.5698 50.9335 86.9551 48.927 85.3378 48.0695H85.3375ZM52.0861 35.3623C51.4451 35.3623 50.9265 34.8425 50.9265 34.2011C50.9265 33.5606 51.4451 33.0416 52.0861 33.0416C52.7269 33.0416 53.2455 33.5609 53.2455 34.2011C53.2455 34.8425 52.7269 35.3623 52.0861 35.3623ZM84.0405 52.6264C83.3997 52.6264 82.8803 52.1067 82.8803 51.4653C82.8803 50.8248 83.4 50.3058 84.0405 50.3058C84.6815 50.3058 85.2006 50.825 85.2006 51.4653C85.2006 52.1067 84.6815 52.6264 84.0405 52.6264Z" fill="#CD2927"/>
<path d="M132.252 17.4401C132.252 15.9697 133.135 14.6993 134.402 14.124H126.162C127.418 14.6993 128.298 15.9695 128.298 17.4401V20.754H134.372C133.125 20.1792 132.252 18.911 132.252 17.4401Z" fill="#55933D"/>
<path d="M124.653 14.124C122.821 14.124 121.337 15.6092 121.337 17.4401V51.0301C121.337 52.86 122.821 54.3427 124.653 54.3427C126.482 54.3427 127.965 52.8603 127.965 51.0301V17.4401C127.965 15.6094 126.482 14.124 124.653 14.124ZM124.653 52.1896C124.012 52.1896 123.492 51.6677 123.492 51.0301C123.492 50.3888 124.012 49.869 124.653 49.869C125.293 49.869 125.813 50.3888 125.813 51.0301C125.813 51.668 125.293 52.1896 124.653 52.1896ZM124.653 18.6004C124.012 18.6004 123.492 18.0817 123.492 17.4401C123.492 16.8001 124.012 16.2806 124.653 16.2806C125.293 16.2806 125.813 16.8003 125.813 17.4401C125.813 18.082 125.293 18.6004 124.653 18.6004Z" fill="#55933D"/>
<path d="M135.92 14.124C134.091 14.124 132.583 15.6092 132.583 17.4401C132.583 19.2716 134.045 20.754 135.877 20.754C137.335 20.7975 139.787 21.4555 139.787 25.3952C139.787 29.3285 137.346 29.9916 135.884 30.0365C134.07 30.0569 132.606 31.5318 132.606 33.3491C132.606 35.1811 134.091 36.6646 135.92 36.6646C140.139 36.6646 146.416 33.6634 146.416 25.3955C146.416 17.1263 140.139 14.1243 135.92 14.1243V14.124ZM135.43 18.6004C134.789 18.6004 134.27 18.0817 134.27 17.4401C134.27 16.8001 134.789 16.2806 135.43 16.2806C136.072 16.2806 136.59 16.8003 136.59 17.4401C136.59 18.082 136.071 18.6004 135.43 18.6004ZM135.43 34.5099C134.789 34.5099 134.27 33.9901 134.27 33.3488C134.27 32.709 134.789 32.1893 135.43 32.1893C136.072 32.1893 136.59 32.7093 136.59 33.3488C136.59 33.9901 136.071 34.5099 135.43 34.5099Z" fill="#55933D"/>
<path d="M95.2332 54.3838H103.483C102.138 53.7696 101.244 52.3687 101.355 50.8079C101.454 49.4467 102.307 48.2958 103.474 47.7549H97.3678V51.0683C97.3678 52.54 96.4919 53.8098 95.2335 54.3838H95.2332Z" fill="#374280"/>
<path d="M97.3675 17.4799V20.7954H102.558C101.311 20.2177 100.44 18.9519 100.44 17.4799C100.44 16.0082 101.324 14.7405 102.589 14.1665H95.2332C96.4916 14.7405 97.3675 16.0079 97.3675 17.4799Z" fill="#374280"/>
<path d="M93.7236 14.1665C91.8918 14.1665 90.4088 15.6498 90.4088 17.4799V51.0683C90.4088 52.8998 91.8918 54.3839 93.7236 54.3839C95.5548 54.3839 97.0379 52.9001 97.0379 51.0683V17.4799C97.0379 15.6498 95.5548 14.1665 93.7236 14.1665ZM93.4549 52.2286C92.8144 52.2286 92.2947 51.7089 92.2947 51.0683C92.2947 50.4278 92.8144 49.9072 93.4549 49.9072C94.0962 49.9072 94.6158 50.4278 94.6158 51.0683C94.6158 51.7092 94.0962 52.2286 93.4549 52.2286ZM93.4549 18.6394C92.8144 18.6394 92.2947 18.1202 92.2947 17.4799C92.2947 16.8393 92.8144 16.3196 93.4549 16.3196C94.0962 16.3196 94.6158 16.8396 94.6158 17.4799C94.6158 18.1205 94.0962 18.6394 93.4549 18.6394Z" fill="#374280"/>
<path d="M104.993 30.0757C103.162 30.0757 101.676 31.5595 101.676 33.3912C101.676 35.2205 103.161 36.7046 104.993 36.7046C105.649 36.7046 111.401 36.8574 111.401 42.0863C111.401 43.984 110.935 45.346 109.979 46.251C108.524 47.625 106.046 47.8054 105.208 47.7613C103.398 47.6357 101.818 49.0132 101.688 50.8304C101.556 52.6571 102.93 54.2442 104.755 54.3744C104.857 54.3817 105.1 54.3967 105.45 54.3967C107.132 54.3967 111.306 54.0716 114.472 51.1241C116.095 49.6143 118.028 46.8201 118.028 42.086C118.028 33.2744 110.232 30.0757 104.993 30.0757H104.993ZM104.557 34.5494C103.916 34.5494 103.397 34.0315 103.397 33.3912C103.397 32.7504 103.916 32.2309 104.557 32.2309C105.198 32.2309 105.716 32.7507 105.716 33.3912C105.716 34.0318 105.198 34.5494 104.557 34.5494ZM104.557 52.2289C103.916 52.2289 103.397 51.7091 103.397 51.0686C103.397 50.428 103.916 49.9074 104.557 49.9074C105.198 49.9074 105.716 50.428 105.716 51.0686C105.716 51.7094 105.198 52.2289 104.557 52.2289Z" fill="#374280"/>
<path d="M104.108 14.1665C102.278 14.1665 100.771 15.6498 100.771 17.4799C100.771 19.3119 102.233 20.7954 104.063 20.7954C105.524 20.8381 107.974 21.4956 107.974 25.4358C107.974 28.2064 107.2 29.349 106.234 29.803C108.369 29.9901 110.76 30.6655 112.853 31.9587C113.915 30.2961 114.602 28.1575 114.602 25.4358C114.602 17.1666 108.326 14.1668 104.107 14.1668L104.108 14.1665ZM104.557 18.6394C103.916 18.6394 103.397 18.1202 103.397 17.4799C103.397 16.8393 103.916 16.3196 104.557 16.3196C105.199 16.3196 105.717 16.8396 105.717 17.4799C105.717 18.1205 105.198 18.6394 104.557 18.6394Z" fill="#374280"/>
<path d="M51.5182 14.0923H40.5142C42.4522 14.1731 44.0129 15.7831 44.0129 17.7407V20.7209H51.5182C53.3489 20.7209 54.8333 19.2371 54.8333 17.4049C54.8333 15.575 53.3489 14.0923 51.5182 14.0923ZM40.2087 14.0923H29.2042C27.3735 14.0923 25.8893 15.575 25.8893 17.4049C25.8893 19.2369 27.3735 20.7209 29.2042 20.7209H36.71V17.7407C36.71 15.7833 38.2704 14.1731 40.2087 14.0923ZM29.2042 18.566C28.5632 18.566 28.044 18.0462 28.044 17.4049C28.044 16.7643 28.5632 16.2454 29.2042 16.2454C29.8444 16.2454 30.363 16.7646 30.363 17.4049C30.363 18.0462 29.8444 18.566 29.2042 18.566ZM51.5182 18.566C50.8774 18.566 50.358 18.0462 50.358 17.4049C50.358 16.7643 50.8774 16.2454 51.5182 16.2454C52.1592 16.2454 52.6786 16.7646 52.6786 17.4049C52.6786 18.0462 52.1592 18.566 51.5182 18.566Z" fill="#55933D"/>
<path d="M40.3614 14.5205C42.1583 14.5205 43.6282 15.9909 43.6282 17.7875V51.0462C43.6282 52.843 42.1583 54.3134 40.3614 54.3134C38.5646 54.3134 37.0947 52.8436 37.0947 51.0462V17.7875C37.0947 15.9904 38.5646 14.5205 40.3614 14.5205Z" fill="#55933D"/>
<path fill-rule="evenodd" clip-rule="evenodd" d="M40.3614 16.249C40.992 16.249 41.5033 16.7602 41.5033 17.3911C41.5033 18.0217 40.9923 18.5331 40.3614 18.5331C39.7309 18.5331 39.2195 18.022 39.2195 17.3911C39.2195 16.7604 39.7306 16.249 40.3614 16.249Z" fill="#FEFEFE"/>
<path fill-rule="evenodd" clip-rule="evenodd" d="M40.3614 49.1729C40.992 49.1729 41.5033 49.684 41.5033 50.3149C41.5033 50.9455 40.9923 51.4569 40.3614 51.4569C39.7309 51.4569 39.2195 50.9458 39.2195 50.3149C39.2195 49.6843 39.7306 49.1729 40.3614 49.1729Z" fill="#FEFEFE"/>
<path d="M197.196 18.005C197.196 16.5347 196.313 15.2643 195.046 14.689H203.286C202.029 15.2643 201.15 16.5344 201.15 18.005V21.319H195.076C196.322 20.7442 197.196 19.476 197.196 18.005Z" fill="#F2B03F"/>
<path d="M193.529 14.6895C195.358 14.6895 196.865 16.1746 196.865 18.0055C196.865 19.837 195.403 21.3195 193.571 21.3195C192.113 21.3629 189.661 22.021 189.661 25.9607C189.661 29.894 192.102 30.5571 193.564 30.6019C195.378 30.6223 196.842 32.0972 196.842 33.9145C196.842 35.7465 195.358 37.23 193.529 37.23C189.309 37.23 183.032 34.2289 183.032 25.9609C183.032 17.6917 189.309 14.6897 193.529 14.6897V14.6895ZM194.018 19.1658C194.659 19.1658 195.178 18.6472 195.178 18.0055C195.178 17.3655 194.659 16.846 194.018 16.846C193.377 16.846 192.858 17.3658 192.858 18.0055C192.858 18.6474 193.377 19.1658 194.018 19.1658ZM194.018 35.0753C194.659 35.0753 195.178 34.5556 195.178 33.9142C195.178 33.2745 194.659 32.7547 194.018 32.7547C193.377 32.7547 192.858 33.2747 192.858 33.9142C192.858 34.5556 193.377 35.0753 194.018 35.0753Z" fill="#F2B03F"/>
<path d="M185.107 53.9548C186.378 55.2258 188.457 55.2252 189.727 53.9551L200.137 43.544V34.3032L185.107 49.3348C183.836 50.6057 183.836 52.6845 185.107 53.9551V53.9548Z" fill="#F2B03F"/>
<path fill-rule="evenodd" clip-rule="evenodd" d="M187.605 52.3925C188.235 52.3925 188.747 51.8813 188.747 51.2504C188.747 50.6198 188.236 50.1084 187.605 50.1084C186.974 50.1084 186.463 50.6196 186.463 51.2504C186.463 51.8811 186.974 52.3925 187.605 52.3925Z" fill="#FEFEFE"/>
<path d="M204.796 14.6895C206.627 14.6895 208.111 16.1746 208.111 18.0055V51.5956C208.111 53.4254 206.627 54.9082 204.796 54.9082C202.967 54.9082 201.483 53.4257 201.483 51.5956V18.0055C201.483 16.1749 202.966 14.6895 204.796 14.6895ZM204.796 52.7551C205.436 52.7551 205.956 52.2332 205.956 51.5956C205.956 50.9542 205.436 50.4345 204.796 50.4345C204.155 50.4345 203.635 50.9542 203.635 51.5956C203.635 52.2334 204.155 52.7551 204.796 52.7551ZM204.796 19.1658C205.436 19.1658 205.956 18.6472 205.956 18.0055C205.956 17.3655 205.436 16.846 204.796 16.846C204.155 16.846 203.635 17.3658 203.635 18.0055C203.635 18.6474 204.155 19.1658 204.796 19.1658Z" fill="#F2B03F"/>
<path d="M157.605 50.659L171.843 36.4193V27.1782L157.605 41.4181V50.659Z" fill="#CD2927"/>
<path d="M176.456 54.698C178.252 54.698 179.722 53.2277 179.722 51.4311V30.8721C179.122 32.0702 177.881 32.8974 176.456 32.8974C175.03 32.8974 173.79 32.0705 173.189 30.8723V51.4308C173.189 53.2279 174.659 54.6978 176.456 54.6978V54.698Z" fill="#CD2927"/>
<path fill-rule="evenodd" clip-rule="evenodd" d="M176.456 52.5849C177.086 52.5849 177.598 52.0737 177.598 51.4428C177.598 50.8122 177.086 50.3008 176.456 50.3008C175.825 50.3008 175.314 50.8119 175.314 51.4428C175.314 52.0735 175.825 52.5849 176.456 52.5849Z" fill="#FEFEFE"/>
<path fill-rule="evenodd" clip-rule="evenodd" d="M176.456 20.0453C177.086 20.0453 177.598 19.5342 177.598 18.9033C177.598 18.2727 177.086 17.7612 176.456 17.7612C175.825 17.7612 175.314 18.2724 175.314 18.9033C175.314 19.5339 175.825 20.0453 176.456 20.0453Z" fill="#FEFEFE"/>
<path d="M176.456 32.5126C178.252 32.5126 179.722 31.0419 179.722 29.2456V18.172C179.722 16.3754 178.252 14.9048 176.456 14.9048C174.659 14.9048 173.189 16.3746 173.189 18.172V29.2456C173.189 31.0427 174.659 32.5126 176.456 32.5126Z" fill="#CD2927"/>
<path fill-rule="evenodd" clip-rule="evenodd" d="M176.456 31.0209C177.086 31.0209 177.598 30.5098 177.598 29.8789C177.598 29.2482 177.086 28.7368 176.456 28.7368C175.825 28.7368 175.314 29.248 175.314 29.8789C175.314 30.5095 175.825 31.0209 176.456 31.0209Z" fill="#FEFEFE"/>
<path fill-rule="evenodd" clip-rule="evenodd" d="M176.456 19.0629C177.086 19.0629 177.598 18.5518 177.598 17.9209C177.598 17.2902 177.086 16.7788 176.456 16.7788C175.825 16.7788 175.314 17.29 175.314 17.9209C175.314 18.5515 175.825 19.0629 176.456 19.0629Z" fill="#FEFEFE"/>
<path d="M152.992 14.5205C154.789 14.5205 156.259 15.9909 156.259 17.7875V38.3465C155.659 37.1483 154.418 36.3212 152.992 36.3212C151.567 36.3212 150.326 37.1481 149.725 38.3462V17.7877C149.725 15.9906 151.195 14.5208 152.992 14.5208V14.5205ZM152.992 16.6336C153.623 16.6336 154.134 17.1448 154.134 17.7756C154.134 18.4063 153.623 18.9177 152.992 18.9177C152.362 18.9177 151.85 18.4065 151.85 17.7756C151.85 17.145 152.361 16.6336 152.992 16.6336Z" fill="#CD2927"/>
<path fill-rule="evenodd" clip-rule="evenodd" d="M152.992 16.6333C153.623 16.6333 154.134 17.1445 154.134 17.7753C154.134 18.406 153.623 18.9174 152.992 18.9174C152.362 18.9174 151.85 18.4062 151.85 17.7753C151.85 17.1447 152.361 16.6333 152.992 16.6333Z" fill="#FEFEFE"/>
<path d="M152.992 36.7056C154.789 36.7056 156.259 38.1762 156.259 39.9725V51.0461C156.259 52.8427 154.789 54.3134 152.992 54.3134C151.195 54.3134 149.725 52.8435 149.725 51.0461V39.9725C149.725 38.1754 151.195 36.7056 152.992 36.7056Z" fill="#CD2927"/>
<path fill-rule="evenodd" clip-rule="evenodd" d="M152.992 38.1973C153.623 38.1973 154.134 38.7084 154.134 39.3393C154.134 39.9699 153.623 40.4814 152.992 40.4814C152.362 40.4814 151.85 39.9702 151.85 39.3393C151.85 38.7087 152.361 38.1973 152.992 38.1973ZM152.992 50.3013C153.623 50.3013 154.134 50.8124 154.134 51.4433C154.134 52.0739 153.623 52.5854 152.992 52.5854C152.362 52.5854 151.85 52.0742 151.85 51.4433C151.85 50.8127 152.361 50.3013 152.992 50.3013Z" fill="#FEFEFE"/>
</g>
<defs>
<clipPath id="clip0_2014_2659">
<rect width="234" height="69" fill="white"/>
</clipPath>
</defs>
</svg>
