<svg width="82" height="28" viewBox="0 0 82 28" fill="none" xmlns="http://www.w3.org/2000/svg">
<path d="M41.5 28L45.3971 22.75H37.6029L41.5 28Z" fill="#374280"/>
<rect width="82" height="24" rx="12" fill="white"/>
<g clip-path="url(#clip0_235_1662)">
<path fill-rule="evenodd" clip-rule="evenodd" d="M12.0881 0H69.9118C76.5603 0 81.9999 5.40002 81.9999 12V12C81.9999 18.6001 76.5602 24 69.9118 24H12.0881C5.43959 24 0 18.6 0 12V12C0 5.39992 5.43968 0 12.0881 0ZM12.0881 1.2594H69.9118C75.8626 1.2594 80.7314 6.09261 80.7314 12V12.0001C80.7314 17.9075 75.8627 22.7408 69.9118 22.7408H12.0881C6.13736 22.7408 1.26856 17.9076 1.26856 12.0001V12C1.26856 6.0927 6.13727 1.2594 12.0881 1.2594Z" fill="#374280"/>
<path fill-rule="evenodd" clip-rule="evenodd" d="M16.3669 13.0658V17.7551C16.3669 18.971 15.3686 19.962 14.1438 19.962C12.9189 19.962 11.9208 18.9711 11.9208 17.7551V8.27768H10.234C8.99715 8.27768 7.99414 7.2816 7.99414 6.05386C7.99414 4.82639 8.99772 3.83115 10.234 3.83115H18.0534C19.2897 3.83115 20.2934 4.82629 20.2934 6.05386C20.2934 7.2817 19.2903 8.27768 18.0534 8.27768H16.3669V10.7273C16.9816 9.73859 18.2732 9.38086 19.3216 9.9331L20.3658 10.4831C21.104 8.67538 21.8421 6.86775 22.5802 5.06002L22.5831 5.05293L22.5866 5.04602C22.876 4.46837 23.4251 4.01763 24.0683 3.89306C25.1437 3.64094 26.2499 4.20112 26.6659 5.21998L30.6035 14.8634V6.07991C30.6035 4.81247 31.1153 3.98784 32.491 3.85786L32.5006 3.85702H32.5102C33.8629 3.85702 35.2156 3.85702 36.5684 3.85702L36.577 3.85721C37.8553 3.91146 38.6141 4.18263 39.5742 4.99335C40.7332 5.97196 41.2383 7.36126 41.2383 8.8472C41.2383 9.55324 41.1243 10.2543 40.8601 10.9098C41.0731 11.1045 41.2678 11.3162 41.442 11.544V6.07048C41.4141 5.44614 41.5737 4.83012 42.0369 4.38536C42.3815 4.05442 42.8544 3.86328 43.3319 3.84236L43.3408 3.84217H48.0305L48.0413 3.84329C49.5741 4.00643 50.6261 4.53682 51.4402 5.71965C51.657 4.72703 52.5496 3.98009 53.613 3.98009C54.8377 3.98009 55.8361 4.97113 55.8361 6.18683V12.2903L59.6123 8.54157V6.32073C59.6123 5.10475 60.6104 4.11381 61.8353 4.11381C62.9226 4.11381 63.8315 4.89493 64.0217 5.92088C64.2264 5.64756 64.4619 5.39833 64.7259 5.17544C65.6237 4.4172 66.0926 4.15649 67.3178 4.03967L67.3274 4.03874H67.3371C68.7362 4.03874 70.1353 4.03874 71.5345 4.03874L71.5441 4.03892C72.4177 4.08001 72.9987 4.27452 73.5708 4.94582L73.5757 4.95152L73.5801 4.95759C73.8583 5.33801 74.0064 5.79249 74.0064 6.26256V17.9461C74.0064 19.1737 73.0028 20.1687 71.7664 20.1687C70.5302 20.1687 69.5272 19.1733 69.5272 17.9461V17.2615L67.2483 19.5236C66.3823 20.3832 64.9705 20.3832 64.1047 19.5235C63.958 19.3779 63.8334 19.2139 63.7338 19.0357C63.3361 19.6823 62.6212 20.0956 61.8353 20.0956C60.6105 20.0956 59.6123 19.1048 59.6123 17.8889V14.7886L55.5495 18.8835L55.5446 18.8879C55.1943 19.1975 54.6852 19.6992 54.2407 19.8575C54.0414 19.9285 53.8338 19.9506 53.6236 19.9615L53.6131 19.9618C52.3882 19.9618 51.3901 18.9709 51.3901 17.7549V11.9894C51.1941 12.2439 50.9709 12.4768 50.7226 12.6865C49.8773 13.4004 48.7412 13.823 47.6304 13.823C46.9589 13.823 46.3387 13.5253 45.9213 13.0366V17.7493C45.9213 18.9766 44.9183 19.9719 43.6821 19.9719C42.4956 19.9719 41.5236 19.0557 41.447 17.8967C41.2702 18.1374 41.0704 18.3611 40.849 18.5657C39.6564 19.6675 38.8098 19.8786 37.2026 19.9858L37.1925 19.9863C36.0041 20.0057 34.8124 20.0033 33.6238 20.0012C32.7265 19.9996 31.8289 19.9958 30.9315 19.9875C30.4254 19.9828 29.8975 19.9882 29.3927 19.9606C29.0162 19.9657 28.6438 19.8769 28.311 19.7017L22.6528 16.7208L21.8965 18.5727C21.5538 19.4118 20.733 19.9617 19.8207 19.9617C19.5323 19.9617 19.2466 19.9054 18.9793 19.7978C17.8428 19.3402 17.2847 18.0311 17.7454 16.9026L18.6749 14.6253L17.2227 13.8603C16.8584 13.6684 16.5694 13.3906 16.3673 13.0655L16.3669 13.0658ZM51.5918 6.35323V6.18683C51.5918 5.08178 52.4995 4.18077 53.6127 4.18077C54.7258 4.18077 55.6336 5.08187 55.6336 6.18683V12.7748L59.8143 8.62467V6.32073C59.8143 5.21559 60.7218 4.31458 61.8351 4.31458C62.9483 4.31458 63.856 5.21578 63.856 6.32073V6.54998C64.1043 6.09709 64.4351 5.68454 64.8567 5.32839C65.592 4.70752 66.0208 4.3651 67.337 4.2395C68.7361 4.2395 70.1353 4.2395 71.5344 4.2395C72.5325 4.28638 72.9813 4.56511 73.4163 5.07552C73.6602 5.40907 73.8041 5.81919 73.8041 6.26265V17.9461C73.8041 19.063 72.8912 19.9681 71.7663 19.9681C70.6418 19.9681 69.7293 19.0627 69.7293 17.9461V16.777L67.1052 19.3818C66.3182 20.1632 65.0345 20.1632 64.2474 19.3818C64.0049 19.1409 63.837 18.8533 63.7439 18.5478C63.4683 19.3308 62.7161 19.8952 61.8352 19.8952C60.7221 19.8952 59.8143 18.9942 59.8143 17.8891V14.299L55.41 18.7382C54.4614 19.5765 54.3141 19.725 53.6129 19.7613C52.4997 19.7613 51.592 18.8603 51.592 17.7552V11.3126C51.3438 11.7653 51.013 12.1779 50.5914 12.5339C49.7829 13.2166 48.6932 13.6226 47.6302 13.6226C46.7538 13.6226 46.0064 13.0726 45.7189 12.3015V17.7496C45.7189 18.866 44.8065 19.7715 43.6818 19.7715C42.557 19.7715 41.6441 18.8665 41.6441 17.7496V17.2018C41.4094 17.6479 41.1009 18.0589 40.711 18.419C39.6109 19.4354 38.8562 19.6746 37.1888 19.7858C35.245 19.8177 30.0543 19.7964 29.3965 19.76C29.0503 19.7658 28.7115 19.6858 28.4055 19.5246L22.5492 16.4395L21.7087 18.4975C21.3965 19.262 20.6492 19.7612 19.8204 19.7612C19.5578 19.7612 19.2981 19.7099 19.055 19.612C18.0171 19.1941 17.5117 18.0086 17.9324 16.9782L18.9305 14.533L17.3171 13.6831C16.3236 13.1597 15.9449 11.9349 16.4721 10.9486C16.9995 9.96196 18.2333 9.58685 19.227 10.1104L20.4691 10.7647C21.2353 8.88828 22.0015 7.01192 22.7677 5.13538C23.0233 4.62525 23.5153 4.20327 24.111 4.08935C25.0887 3.85823 26.0959 4.35819 26.4786 5.29543L30.8056 15.8928V6.07991C30.8056 5.16591 31.0515 4.19543 32.5101 4.05769C33.4959 4.05769 35.5825 4.05769 36.5683 4.05769C37.9593 4.1168 38.6362 4.46492 39.4431 5.14621C40.556 6.08607 41.036 7.4199 41.036 8.8472C41.036 9.58181 40.9093 10.3008 40.6178 10.9641C41.0446 11.3323 41.3865 11.7548 41.6439 12.221V6.06599C41.5779 4.63253 42.5667 4.07674 43.3406 4.04284H48.0195C49.5721 4.20803 50.7113 4.7473 51.5918 6.35314V6.35323ZM67.0602 13.7522C66.2531 13.6107 65.4731 13.251 64.8565 12.7305C64.4349 12.3744 64.1041 11.9619 63.8558 11.5091V17.0921C63.9516 16.894 64.082 16.7086 64.2471 16.5448L67.0601 13.7523L67.0602 13.7522ZM12.123 8.07701H10.2341C9.10881 8.07701 8.19638 7.17086 8.19638 6.05386C8.19638 4.93714 9.10928 4.03192 10.2341 4.03192H18.0535C19.1784 4.03192 20.0914 4.93714 20.0914 6.05386C20.0914 7.17095 19.1788 8.07701 18.0535 8.07701H16.1648V17.7551C16.1648 18.8601 15.2572 19.7612 14.1439 19.7612C13.0307 19.7612 12.123 18.8602 12.123 17.7551V8.07701ZM66.6555 13.8701C65.9505 13.689 65.2778 13.3496 64.7256 12.8832C64.4773 12.6736 64.2541 12.4405 64.0581 12.1861V16.4499C64.0732 16.434 64.0887 16.4183 64.1043 16.4028L66.6556 13.87L66.6555 13.8701Z" fill="#374280"/>
<path d="M23.4061 6.53158C23.3496 6.39273 23.3211 6.24995 23.3153 6.10839L20.96 11.8769L23.0226 12.964L24.5273 9.27767L23.406 6.53167L23.4061 6.53158Z" fill="#CD2927"/>
<path d="M18.7446 17.3049C18.5036 17.8952 18.7901 18.5671 19.3845 18.8062C19.5273 18.8641 19.6753 18.8916 19.8205 18.8916C20.2793 18.8916 20.714 18.6195 20.8969 18.1709L22.0585 15.3265L19.9958 14.2396L18.7446 17.3049ZM20.1886 17.901C20.1886 18.1241 20.0066 18.3049 19.7819 18.3049C19.5573 18.3049 19.3756 18.1241 19.3756 17.901C19.3756 17.6782 19.5573 17.4977 19.7819 17.4977C20.0066 17.4977 20.1886 17.6783 20.1886 17.901Z" fill="#CD2927"/>
<path d="M25.6665 5.62216C25.4259 5.03191 24.7492 4.74683 24.1541 4.98681C23.5596 5.22596 23.273 5.8981 23.5142 6.48863L27.0172 15.068L29.9594 16.6175C30.0638 16.6725 30.1562 16.7409 30.2381 16.818L25.6667 5.62226L25.6665 5.62216ZM24.6011 6.34342C24.3766 6.34342 24.1946 6.16283 24.1946 5.93984C24.1946 5.71676 24.3767 5.53597 24.6011 5.53597C24.8258 5.53597 25.0077 5.71676 25.0077 5.93984C25.0077 6.16283 24.8258 6.34342 24.6011 6.34342Z" fill="#CD2927"/>
<path d="M29.9047 16.7198L18.8162 10.8787C18.2501 10.58 17.5469 10.7934 17.2459 11.3563C16.9456 11.9182 17.161 12.6162 17.7277 12.9149L28.8161 18.7563C28.9896 18.8474 29.1758 18.8906 29.3598 18.8906C29.7756 18.8906 30.1777 18.6687 30.3864 18.2784C30.6869 17.716 30.4715 17.018 29.9048 16.7198H29.9047ZM18.2525 12.2999C18.0279 12.2999 17.8461 12.1191 17.8461 11.896C17.8461 11.6732 18.0279 11.4927 18.2525 11.4927C18.477 11.4927 18.6588 11.6733 18.6588 11.896C18.6588 12.1191 18.477 12.2999 18.2525 12.2999ZM29.4502 18.3048C29.2256 18.3048 29.0436 18.124 29.0436 17.9009C29.0436 17.6781 29.2257 17.4976 29.4502 17.4976C29.6748 17.4976 29.8567 17.6782 29.8567 17.9009C29.8567 18.124 29.6748 18.3048 29.4502 18.3048Z" fill="#CD2927"/>
<path d="M46.345 6.06609C46.345 5.55465 46.6546 5.11278 47.0984 4.91267H44.2109C44.6513 5.11278 44.9594 5.55456 44.9594 6.06609V7.21876H47.0879C46.6512 7.01883 46.345 6.57771 46.345 6.06609Z" fill="#55933D"/>
<path d="M43.6822 4.91267C43.0405 4.91267 42.5205 5.42924 42.5205 6.06609V17.7496C42.5205 18.3861 43.0404 18.9018 43.6822 18.9018C44.3232 18.9018 44.8432 18.3861 44.8432 17.7496V6.06609C44.8432 5.42934 44.3233 4.91267 43.6822 4.91267ZM43.6822 18.1529C43.4578 18.1529 43.2757 17.9714 43.2757 17.7496C43.2757 17.5265 43.4579 17.3457 43.6822 17.3457C43.9066 17.3457 44.0888 17.5265 44.0888 17.7496C44.0888 17.9714 43.9066 18.1529 43.6822 18.1529ZM43.6822 6.46967C43.4578 6.46967 43.2757 6.28926 43.2757 6.06609C43.2757 5.84347 43.4579 5.66278 43.6822 5.66278C43.9066 5.66278 44.0888 5.84357 44.0888 6.06609C44.0888 6.28936 43.9066 6.46967 43.6822 6.46967Z" fill="#55933D"/>
<path d="M47.6302 4.91267C46.9892 4.91267 46.4609 5.42924 46.4609 6.06609C46.4609 6.70312 46.9732 7.21876 47.6152 7.21876C48.1262 7.23389 48.9854 7.46276 48.9854 8.8331C48.9854 10.2012 48.1299 10.4318 47.6177 10.4474C46.9822 10.4545 46.469 10.9676 46.469 11.5996C46.469 12.2369 46.9892 12.7529 47.6302 12.7529C49.1087 12.7529 51.3084 11.709 51.3084 8.83319C51.3084 5.95693 49.1088 4.91276 47.6302 4.91276V4.91267ZM47.4587 6.46967C47.234 6.46967 47.0521 6.28926 47.0521 6.06609C47.0521 5.84347 47.234 5.66278 47.4587 5.66278C47.6834 5.66278 47.8652 5.84357 47.8652 6.06609C47.8652 6.28936 47.6833 6.46967 47.4587 6.46967ZM47.4587 12.0034C47.234 12.0034 47.0521 11.8226 47.0521 11.5995C47.0521 11.377 47.234 11.1962 47.4587 11.1962C47.6834 11.1962 47.8652 11.3771 47.8652 11.5995C47.8652 11.8226 47.6833 12.0034 47.4587 12.0034Z" fill="#55933D"/>
<path d="M33.3721 18.9161H36.2631C35.7916 18.7024 35.4783 18.2152 35.5173 17.6723C35.552 17.1988 35.8509 16.7985 36.2598 16.6104H34.1201V17.7628C34.1201 18.2747 33.8131 18.7164 33.3722 18.9161H33.3721Z" fill="#374280"/>
<path d="M34.12 6.08V7.23323H35.9387C35.502 7.03228 35.1967 6.592 35.1967 6.08C35.1967 5.5681 35.5063 5.12716 35.9497 4.92752H33.3721C33.813 5.12716 34.12 5.568 34.12 6.08Z" fill="#374280"/>
<path d="M32.8432 4.92752C32.2013 4.92752 31.6816 5.44344 31.6816 6.08V17.7629C31.6816 18.4 32.2013 18.9162 32.8432 18.9162C33.485 18.9162 34.0047 18.4001 34.0047 17.7629V6.08C34.0047 5.44344 33.485 4.92752 32.8432 4.92752ZM32.7491 18.1665C32.5247 18.1665 32.3425 17.9857 32.3425 17.7629C32.3425 17.5401 32.5247 17.3591 32.7491 17.3591C32.9738 17.3591 33.1559 17.5401 33.1559 17.7629C33.1559 17.9858 32.9738 18.1665 32.7491 18.1665ZM32.7491 6.48331C32.5247 6.48331 32.3425 6.30271 32.3425 6.08C32.3425 5.8572 32.5247 5.67642 32.7491 5.67642C32.9738 5.67642 33.1559 5.85729 33.1559 6.08C33.1559 6.3028 32.9738 6.48331 32.7491 6.48331Z" fill="#374280"/>
<path d="M36.7921 10.4611C36.1503 10.4611 35.6299 10.9772 35.6299 11.6143C35.6299 12.2506 36.1503 12.7668 36.7921 12.7668C37.022 12.7668 39.0376 12.8199 39.0376 14.6387C39.0376 15.2988 38.8743 15.7725 38.5393 16.0872C38.0296 16.5652 37.1612 16.6279 36.8675 16.6126C36.2332 16.5689 35.6795 17.048 35.6338 17.6801C35.5877 18.3155 36.0692 18.8675 36.7087 18.9128C36.7446 18.9153 36.8295 18.9205 36.9522 18.9205C37.5418 18.9205 39.0043 18.8075 40.1138 17.7823C40.6825 17.2571 41.36 16.2852 41.36 14.6386C41.36 11.5737 38.628 10.4611 36.7921 10.4611H36.7921ZM36.6394 12.0171C36.4147 12.0171 36.2328 11.837 36.2328 11.6143C36.2328 11.3914 36.4148 11.2107 36.6394 11.2107C36.8641 11.2107 37.0457 11.3915 37.0457 11.6143C37.0457 11.8371 36.864 12.0171 36.6394 12.0171ZM36.6394 18.1665C36.4147 18.1665 36.2328 17.9857 36.2328 17.7629C36.2328 17.5401 36.4148 17.3591 36.6394 17.3591C36.8641 17.3591 37.0457 17.5401 37.0457 17.7629C37.0457 17.9858 36.864 18.1665 36.6394 18.1665Z" fill="#374280"/>
<path d="M36.4825 4.92752C35.8413 4.92752 35.3135 5.44344 35.3135 6.08C35.3135 6.71722 35.8256 7.23323 36.4668 7.23323C36.9789 7.24808 37.8374 7.47676 37.8374 8.84729C37.8374 9.81096 37.5663 10.2084 37.2276 10.3663C37.9758 10.4314 38.8138 10.6663 39.5471 11.1161C39.9192 10.5378 40.1602 9.79397 40.1602 8.84729C40.1602 5.97103 37.9608 4.92761 36.4824 4.92761L36.4825 4.92752ZM36.6402 6.4833C36.4154 6.4833 36.2336 6.30271 36.2336 6.08C36.2336 5.8572 36.4155 5.67642 36.6402 5.67642C36.8649 5.67642 37.0464 5.85729 37.0464 6.08C37.0464 6.3028 36.8648 6.4833 36.6402 6.4833Z" fill="#374280"/>
<path d="M18.0533 4.90165H14.1972C14.8764 4.92976 15.4233 5.48975 15.4233 6.17067V7.20727H18.0533C18.6948 7.20727 19.215 6.69117 19.215 6.05385C19.215 5.41738 18.6948 4.90165 18.0533 4.90165ZM14.0902 4.90165H10.2339C9.59235 4.90165 9.07227 5.41738 9.07227 6.05385C9.07227 6.69107 9.59235 7.20727 10.2339 7.20727H12.8641V6.17067C12.8641 5.48984 13.4109 4.92976 14.0902 4.90165ZM10.2339 6.45772C10.0092 6.45772 9.82733 6.27694 9.82733 6.05385C9.82733 5.83105 10.0092 5.65055 10.2339 5.65055C10.4582 5.65055 10.64 5.83114 10.64 6.05385C10.64 6.27694 10.4582 6.45772 10.2339 6.45772ZM18.0533 6.45772C17.8288 6.45772 17.6468 6.27694 17.6468 6.05385C17.6468 5.83105 17.8288 5.65055 18.0533 5.65055C18.2779 5.65055 18.46 5.83114 18.46 6.05385C18.46 6.27694 18.2779 6.45772 18.0533 6.45772Z" fill="#55933D"/>
<path d="M14.1438 5.05059C14.7735 5.05059 15.2886 5.56203 15.2886 6.18692V17.7552C15.2886 18.3802 14.7735 18.8916 14.1438 18.8916C13.5141 18.8916 12.999 18.3804 12.999 17.7552V6.18692C12.999 5.56184 13.5141 5.05059 14.1438 5.05059Z" fill="#55933D"/>
<path fill-rule="evenodd" clip-rule="evenodd" d="M14.1433 5.65176C14.3643 5.65176 14.5435 5.82956 14.5435 6.049C14.5435 6.26835 14.3644 6.44623 14.1433 6.44623C13.9224 6.44623 13.7432 6.26844 13.7432 6.049C13.7432 5.82965 13.9223 5.65176 14.1433 5.65176Z" fill="#FEFEFE"/>
<path fill-rule="evenodd" clip-rule="evenodd" d="M14.1433 17.1036C14.3643 17.1036 14.5435 17.2814 14.5435 17.5008C14.5435 17.7202 14.3644 17.8981 14.1433 17.8981C13.9224 17.8981 13.7432 17.7203 13.7432 17.5008C13.7432 17.2815 13.9223 17.1036 14.1433 17.1036Z" fill="#FEFEFE"/>
<path d="M69.103 6.26265C69.103 5.75121 68.7934 5.30935 68.3496 5.10923H71.237C70.7967 5.30935 70.4885 5.75112 70.4885 6.26265V7.41532H68.36C68.7968 7.2154 69.103 6.77427 69.103 6.26265Z" fill="#F2B03F"/>
<path d="M67.8179 5.10951C68.4588 5.10951 68.9871 5.62609 68.9871 6.26293C68.9871 6.89996 68.4748 7.4156 67.8328 7.4156C67.3219 7.43073 66.4627 7.6596 66.4627 9.02994C66.4627 10.398 67.3181 10.6287 67.8304 10.6443C68.4659 10.6514 68.979 11.1644 68.979 11.7965C68.979 12.4337 68.4588 12.9497 67.8179 12.9497C66.3394 12.9497 64.1396 11.9058 64.1396 9.03003C64.1396 6.15377 66.3393 5.10961 67.8179 5.10961V5.10951ZM67.9894 6.66651C68.2141 6.66651 68.3959 6.48611 68.3959 6.26293C68.3959 6.04031 68.2141 5.85963 67.9894 5.85963C67.7646 5.85963 67.5828 6.04041 67.5828 6.26293C67.5828 6.4862 67.7647 6.66651 67.9894 6.66651ZM67.9894 12.2002C68.2141 12.2002 68.3959 12.0195 68.3959 11.7964C68.3959 11.5739 68.2141 11.3931 67.9894 11.3931C67.7646 11.3931 67.5828 11.574 67.5828 11.7964C67.5828 12.0195 67.7647 12.2002 67.9894 12.2002Z" fill="#F2B03F"/>
<path d="M64.8672 18.7669C65.3124 19.2089 66.0409 19.2087 66.486 18.7669L70.1339 15.1457V11.9315L64.8671 17.1599C64.4219 17.6019 64.4219 18.325 64.8672 18.7669V18.7669Z" fill="#F2B03F"/>
<path fill-rule="evenodd" clip-rule="evenodd" d="M65.7419 18.2235C65.9629 18.2235 66.1421 18.0457 66.1421 17.8262C66.1421 17.6069 65.963 17.429 65.7419 17.429C65.521 17.429 65.3418 17.6068 65.3418 17.8262C65.3418 18.0456 65.5209 18.2235 65.7419 18.2235Z" fill="#FEFEFE"/>
<path d="M71.7664 5.10933C72.4081 5.10933 72.9281 5.6259 72.9281 6.26274V17.9462C72.9281 18.5827 72.4082 19.0984 71.7664 19.0984C71.1255 19.0984 70.6055 18.5828 70.6055 17.9462V6.26274C70.6055 5.62599 71.1254 5.10933 71.7664 5.10933ZM71.7664 18.3495C71.9909 18.3495 72.173 18.168 72.173 17.9462C72.173 17.7232 71.9908 17.5424 71.7664 17.5424C71.542 17.5424 71.3599 17.7232 71.3599 17.9462C71.3599 18.1681 71.542 18.3495 71.7664 18.3495ZM71.7664 6.66633C71.9909 6.66633 72.173 6.48592 72.173 6.26274C72.173 6.04013 71.9908 5.85944 71.7664 5.85944C71.542 5.85944 71.3599 6.04022 71.3599 6.26274C71.3599 6.48601 71.542 6.66633 71.7664 6.66633Z" fill="#F2B03F"/>
<path d="M55.2285 17.6205L60.2179 12.6676V9.45332L55.2285 14.4063V17.6205Z" fill="#CD2927"/>
<path d="M61.8352 19.0254C62.4649 19.0254 62.98 18.514 62.98 17.8891V10.7381C62.7695 11.1549 62.3347 11.4426 61.8352 11.4426C61.3357 11.4426 60.9009 11.155 60.6904 10.7382V17.889C60.6904 18.5141 61.2055 19.0253 61.8352 19.0253V19.0254Z" fill="#CD2927"/>
<path fill-rule="evenodd" clip-rule="evenodd" d="M61.8347 18.2904C62.0557 18.2904 62.2349 18.1126 62.2349 17.8932C62.2349 17.6739 62.0558 17.496 61.8347 17.496C61.6138 17.496 61.4346 17.6738 61.4346 17.8932C61.4346 18.1125 61.6137 18.2904 61.8347 18.2904Z" fill="#FEFEFE"/>
<path fill-rule="evenodd" clip-rule="evenodd" d="M61.8347 6.97233C62.0557 6.97233 62.2349 6.79454 62.2349 6.5751C62.2349 6.35575 62.0558 6.17786 61.8347 6.17786C61.6138 6.17786 61.4346 6.35566 61.4346 6.5751C61.4346 6.79445 61.6137 6.97233 61.8347 6.97233Z" fill="#FEFEFE"/>
<path d="M61.8352 11.3088C62.4649 11.3088 62.98 10.7972 62.98 10.1724V6.32073C62.98 5.69584 62.4649 5.18431 61.8352 5.18431C61.2055 5.18431 60.6904 5.69556 60.6904 6.32073V10.1724C60.6904 10.7975 61.2055 11.3088 61.8352 11.3088Z" fill="#CD2927"/>
<path fill-rule="evenodd" clip-rule="evenodd" d="M61.8347 10.7899C62.0557 10.7899 62.2349 10.6122 62.2349 10.3927C62.2349 10.1734 62.0558 9.99548 61.8347 9.99548C61.6138 9.99548 61.4346 10.1733 61.4346 10.3927C61.4346 10.6121 61.6137 10.7899 61.8347 10.7899Z" fill="#FEFEFE"/>
<path fill-rule="evenodd" clip-rule="evenodd" d="M61.8347 6.63056C62.0557 6.63056 62.2349 6.45277 62.2349 6.23333C62.2349 6.01398 62.0558 5.83609 61.8347 5.83609C61.6138 5.83609 61.4346 6.01389 61.4346 6.23333C61.4346 6.45268 61.6137 6.63056 61.8347 6.63056Z" fill="#FEFEFE"/>
<path d="M53.6125 5.05059C54.2422 5.05059 54.7573 5.56203 54.7573 6.18692V13.3379C54.5469 12.9211 54.112 12.6334 53.6125 12.6334C53.1131 12.6334 52.6783 12.921 52.4678 13.3378V6.18701C52.4678 5.56193 52.9829 5.05068 53.6125 5.05068V5.05059ZM53.6125 5.78558C53.8335 5.78558 54.0127 5.96337 54.0127 6.18281C54.0127 6.40216 53.8336 6.58005 53.6125 6.58005C53.3916 6.58005 53.2124 6.40225 53.2124 6.18281C53.2124 5.96346 53.3915 5.78558 53.6125 5.78558Z" fill="#CD2927"/>
<path fill-rule="evenodd" clip-rule="evenodd" d="M53.6121 5.78548C53.833 5.78548 54.0122 5.96328 54.0122 6.18272C54.0122 6.40207 53.8331 6.57995 53.6121 6.57995C53.3911 6.57995 53.2119 6.40216 53.2119 6.18272C53.2119 5.96337 53.391 5.78548 53.6121 5.78548Z" fill="#FEFEFE"/>
<path d="M53.6125 12.7672C54.2422 12.7672 54.7573 13.2787 54.7573 13.9035V17.7552C54.7573 18.3801 54.2422 18.8916 53.6125 18.8916C52.9829 18.8916 52.4678 18.3804 52.4678 17.7552V13.9035C52.4678 13.2784 52.9829 12.7672 53.6125 12.7672Z" fill="#CD2927"/>
<path fill-rule="evenodd" clip-rule="evenodd" d="M53.6121 13.286C53.833 13.286 54.0122 13.4638 54.0122 13.6832C54.0122 13.9025 53.8331 14.0804 53.6121 14.0804C53.3911 14.0804 53.2119 13.9026 53.2119 13.6832C53.2119 13.4639 53.391 13.286 53.6121 13.286ZM53.6121 17.4961C53.833 17.4961 54.0122 17.6738 54.0122 17.8933C54.0122 18.1126 53.8331 18.2905 53.6121 18.2905C53.3911 18.2905 53.2119 18.1127 53.2119 17.8933C53.2119 17.6739 53.391 17.4961 53.6121 17.4961Z" fill="#FEFEFE"/>
</g>
<defs>
<clipPath id="clip0_235_1662">
<rect width="82" height="24" fill="white"/>
</clipPath>
</defs>
</svg>
