<svg width="30" height="30" viewBox="0 0 30 30" fill="none" xmlns="http://www.w3.org/2000/svg">
<circle cx="14.7503" cy="14.5833" r="14.5833" fill="#1393E2"/>
<g clip-path="url(#clip0_268_2262)">
<path d="M19.1985 9.2965L7.356 14.0008C7.356 14.0008 6.79418 14.1935 6.83842 14.5519C6.88266 14.9103 7.33831 15.0761 7.33831 15.0761L10.3155 16.0931L10.3199 16.0976V16.0931L17.4688 11.4918C17.4688 11.4918 17.8802 11.2365 17.867 11.4918C17.867 11.4918 17.9422 11.5366 17.721 11.7472C17.4998 11.9578 12.1027 16.8682 12.1027 16.8682L12.0939 16.9623L16.9512 20.7347C17.7608 21.0931 18.0572 20.3449 18.0572 20.3449L20.1673 9.57876C20.1673 8.86192 19.1941 9.2965 19.1985 9.2965Z" fill="white"/>
<path d="M13.9523 18.405L12.028 20.1837C12.028 20.1837 11.8775 20.3002 11.7139 20.2285L12.081 16.9265" fill="white"/>
</g>
<defs>
<clipPath id="clip0_268_2262">
<rect width="13.3333" height="11.6667" fill="white" transform="translate(6.83398 9.16666)"/>
</clipPath>
</defs>
</svg>
