<svg width="50" height="50" viewBox="0 0 50 50" fill="none" xmlns="http://www.w3.org/2000/svg">
<circle cx="25" cy="25" r="25" fill="#2F80ED"/>
<path d="M29.4906 33.1006C29.35 33.1006 29.2103 33.059 29.0905 32.9777L24.5646 29.9077L22.1371 31.6544C21.9467 31.7913 21.7014 31.8258 21.4803 31.7467C21.2595 31.6675 21.0918 31.4846 21.032 31.2578L19.8131 26.6387L15.458 24.9735C15.1838 24.8686 15.002 24.6063 15 24.3127C14.998 24.0192 15.1762 23.7544 15.4491 23.6458L32.0088 17.0566C32.084 17.0247 32.1635 17.0062 32.2437 17.0013C32.2724 16.9996 32.3011 16.9996 32.3297 17.0012C32.4958 17.0111 32.6589 17.0787 32.7862 17.2036C32.7994 17.2165 32.812 17.2297 32.8238 17.2435C32.9293 17.3639 32.9872 17.5108 32.9982 17.6604C33.0008 17.698 33.0006 17.7361 32.9973 17.7742C32.995 17.8014 32.9911 17.8285 32.9856 17.8553L30.1904 32.5214C30.1455 32.757 29.9851 32.9543 29.7636 33.0461C29.6757 33.0826 29.5829 33.1006 29.4906 33.1006ZM24.962 28.4553L28.9935 31.1899L31.1685 19.7781L23.3131 27.3369L24.943 28.4425C24.9495 28.4466 24.9558 28.451 24.962 28.4553ZM21.6059 27.8472L22.1457 29.8926L23.3087 29.0557L21.7858 28.0227C21.715 27.9748 21.6544 27.9152 21.6059 27.8472ZM17.673 24.2946L20.6634 25.4379C20.8776 25.5198 21.0393 25.6999 21.0978 25.9217L21.4771 27.3589C21.4944 27.1931 21.5696 27.0372 21.6917 26.9196L29.1767 19.7173L17.673 24.2946Z" fill="white"/>
</svg>
