<svg width="30" height="30" viewBox="0 0 30 30" fill="none" xmlns="http://www.w3.org/2000/svg">
<circle cx="14.5833" cy="14.5833" r="14.5833" fill="#33CE62"/>
<g clip-path="url(#clip0_268_2256)">
<path d="M20.31 8.84576C18.9 7.44278 17.025 6.66666 15.03 6.66666C10.92 6.66666 7.56 9.99501 7.56 14.0995C7.56 15.4129 7.905 16.6816 8.55 17.8159L7.5 21.6667L11.46 20.6368C12.555 21.2338 13.785 21.5473 15.03 21.5473C19.14 21.5473 22.5 18.2189 22.5 14.1144C22.5 12.1144 21.72 10.2487 20.31 8.84576ZM15.03 20.2786C13.92 20.2786 12.825 19.9801 11.865 19.4129L11.64 19.2786L9.3 19.9055L9.93 17.6219L9.78 17.3831C9.165 16.398 8.835 15.2637 8.835 14.0995C8.82 10.6965 11.61 7.92039 15.03 7.92039C16.695 7.92039 18.24 8.56218 19.425 9.72636C20.595 10.8905 21.24 12.4428 21.24 14.0995C21.24 17.5025 18.45 20.2786 15.03 20.2786ZM18.435 15.6517C18.255 15.5622 17.325 15.1144 17.16 15.0547C16.995 14.995 16.86 14.9652 16.74 15.1443C16.62 15.3234 16.26 15.7413 16.155 15.8756C16.05 15.995 15.93 16.0099 15.75 15.9204C15.57 15.8308 14.955 15.6368 14.25 14.995C13.695 14.5025 13.32 13.8905 13.215 13.7114C13.11 13.5323 13.2 13.4279 13.29 13.3383C13.38 13.2487 13.47 13.1144 13.575 13.0099C13.665 12.9055 13.695 12.8308 13.755 12.6965C13.815 12.5771 13.785 12.4577 13.74 12.3681C13.695 12.2786 13.32 11.3681 13.17 10.995C13.02 10.6368 12.87 10.6816 12.75 10.6816C12.645 10.6816 12.51 10.6816 12.39 10.6816C12.27 10.6816 12.06 10.7264 11.895 10.9204C11.73 11.0995 11.235 11.5622 11.235 12.4726C11.235 13.3831 11.91 14.2637 12 14.398C12.09 14.5174 13.32 16.398 15.195 17.204C15.645 17.398 15.99 17.5025 16.26 17.592C16.71 17.7264 17.115 17.7114 17.43 17.6667C17.79 17.607 18.54 17.2189 18.69 16.7861C18.84 16.3532 18.84 15.9801 18.795 15.9055C18.75 15.7861 18.63 15.7413 18.435 15.6517Z" fill="white"/>
</g>
<defs>
<clipPath id="clip0_268_2256">
<rect width="15" height="15" fill="white" transform="translate(7.5 6.66666)"/>
</clipPath>
</defs>
</svg>
