<svg width="50" height="50" viewBox="0 0 50 50" fill="none" xmlns="http://www.w3.org/2000/svg">
<circle cx="25" cy="25" r="25" fill="#5FBC74"/>
<path d="M31.3401 18.6139C29.6476 16.9293 27.396 16.001 24.9996 16C22.6086 16 20.3534 16.9275 18.6497 18.6117C16.943 20.2988 16.0022 22.5408 16 24.9166V24.921C16.0003 26.359 16.3784 27.8096 17.0963 29.1337L16.0246 34L20.9516 32.8804C22.1995 33.5086 23.5918 33.8399 24.9962 33.8404H24.9997C27.3903 33.8404 29.6455 32.9128 31.3495 31.2284C33.0577 29.54 33.9989 27.3008 34 24.9235C34.0007 22.563 33.0562 20.3222 31.3401 18.6139ZM24.9996 32.4355H24.9964C23.7355 32.435 22.4861 32.1187 21.3835 31.5207L21.1505 31.3943L17.8743 32.1388L18.5859 28.9077L18.4487 28.6714C17.7667 27.4962 17.4062 26.199 17.4062 24.9195C17.4088 20.7781 20.8149 17.4049 24.9993 17.4049C27.0208 17.4057 28.9203 18.1886 30.3477 19.6091C31.7966 21.0517 32.5943 22.9388 32.5936 24.9231C32.592 29.0655 29.1853 32.4355 24.9996 32.4355Z" fill="white"/>
<path d="M22.5507 20.9874H22.1562C22.0189 20.9874 21.7959 21.0387 21.6073 21.2438C21.4186 21.4489 20.8867 21.9448 20.8867 22.9534C20.8867 23.9619 21.6245 24.9364 21.7273 25.0733C21.8303 25.2101 23.1514 27.3459 25.2439 28.1675C26.9829 28.8503 27.3368 28.7145 27.7142 28.6803C28.0916 28.6462 28.9322 28.1845 29.1038 27.7059C29.2753 27.2273 29.2753 26.817 29.2239 26.7313C29.1724 26.6459 29.035 26.5947 28.8293 26.4922C28.6233 26.3896 27.6144 25.8854 27.4256 25.8168C27.2369 25.7486 27.0997 25.7144 26.9624 25.9197C26.8251 26.1246 26.4208 26.5986 26.3007 26.7354C26.1807 26.8723 26.0605 26.8895 25.8546 26.7869C25.6487 26.6841 24.9924 26.4638 24.206 25.7656C23.5939 25.2222 23.1692 24.5292 23.049 24.3241C22.929 24.119 23.0362 24.0081 23.1395 23.9058C23.232 23.814 23.3569 23.6885 23.4599 23.5689C23.5627 23.4491 23.592 23.3637 23.6607 23.2269C23.7293 23.0902 23.6949 22.9704 23.6435 22.868C23.592 22.7654 23.1969 21.7518 23.0138 21.3464C22.8596 21.005 22.6974 20.9934 22.5507 20.9874Z" fill="white"/>
</svg>
