<svg width="50" height="50" viewBox="0 0 50 50" fill="none" xmlns="http://www.w3.org/2000/svg">
<circle cx="25" cy="25" r="25" fill="#4DC25A"/>
<path d="M15 25C15 20.286 15 17.9289 16.4645 16.4645C17.9289 15 20.286 15 25 15C29.714 15 32.0711 15 33.5355 16.4645C35 17.9289 35 20.286 35 25C35 29.714 35 32.0711 33.5355 33.5355C32.0711 35 29.714 35 25 35C20.286 35 17.9289 35 16.4645 33.5355C15 32.0711 15 29.714 15 25Z" stroke="white" stroke-width="2"/>
<path d="M20.2632 30.2631C22.7176 27.6924 27.2561 27.5714 29.7369 30.2631M27.6264 22.3684C27.6264 23.8218 26.4466 25 24.9911 25C23.5357 25 22.3558 23.8218 22.3558 22.3684C22.3558 20.915 23.5357 19.7368 24.9911 19.7368C26.4466 19.7368 27.6264 20.915 27.6264 22.3684Z" stroke="white" stroke-width="2" stroke-linecap="round"/>
</svg>
